G04 #@! TF.GenerationSoftware,KiCad,Pcbnew,(5.0.2)-1*
G04 #@! TF.CreationDate,2020-01-29T02:21:28+01:00*
G04 #@! TF.ProjectId,fan_controller,66616e5f-636f-46e7-9472-6f6c6c65722e,rev?*
G04 #@! TF.SameCoordinates,Original*
G04 #@! TF.FileFunction,Soldermask,Bot*
G04 #@! TF.FilePolarity,Negative*
%FSLAX46Y46*%
G04 Gerber Fmt 4.6, Leading zero omitted, Abs format (unit mm)*
G04 Created by KiCad (PCBNEW (5.0.2)-1) date 29.01.2020 02:21:28*
%MOMM*%
%LPD*%
G01*
G04 APERTURE LIST*
%ADD10C,0.100000*%
G04 APERTURE END LIST*
D10*
G36*
X130365830Y-63764930D02*
X130365833Y-63764931D01*
X130365834Y-63764931D01*
X130573373Y-63827887D01*
X130573375Y-63827888D01*
X130764644Y-63930123D01*
X130932291Y-64067709D01*
X131069877Y-64235356D01*
X131172112Y-64426625D01*
X131235070Y-64634170D01*
X131256327Y-64850000D01*
X131235070Y-65065830D01*
X131172112Y-65273375D01*
X131069877Y-65464644D01*
X130932291Y-65632291D01*
X130764644Y-65769877D01*
X130573375Y-65872112D01*
X130573373Y-65872113D01*
X130365834Y-65935069D01*
X130365833Y-65935069D01*
X130365830Y-65935070D01*
X130204089Y-65951000D01*
X130095911Y-65951000D01*
X129934170Y-65935070D01*
X129934167Y-65935069D01*
X129934166Y-65935069D01*
X129726627Y-65872113D01*
X129726625Y-65872112D01*
X129535356Y-65769877D01*
X129367709Y-65632291D01*
X129230123Y-65464644D01*
X129127888Y-65273375D01*
X129064930Y-65065830D01*
X129043673Y-64850000D01*
X129064930Y-64634170D01*
X129127888Y-64426625D01*
X129230123Y-64235356D01*
X129367709Y-64067709D01*
X129535356Y-63930123D01*
X129726625Y-63827888D01*
X129726627Y-63827887D01*
X129934166Y-63764931D01*
X129934167Y-63764931D01*
X129934170Y-63764930D01*
X130095911Y-63749000D01*
X130204089Y-63749000D01*
X130365830Y-63764930D01*
X130365830Y-63764930D01*
G37*
G36*
X124660721Y-62170174D02*
X124760995Y-62211709D01*
X124851245Y-62272012D01*
X124927988Y-62348755D01*
X124988291Y-62439005D01*
X125029826Y-62539279D01*
X125051000Y-62645730D01*
X125051000Y-62754270D01*
X125029826Y-62860721D01*
X124988291Y-62960995D01*
X124927988Y-63051245D01*
X124851245Y-63127988D01*
X124760995Y-63188291D01*
X124660721Y-63229826D01*
X124554270Y-63251000D01*
X124445730Y-63251000D01*
X124339279Y-63229826D01*
X124239005Y-63188291D01*
X124148755Y-63127988D01*
X124072012Y-63051245D01*
X124011709Y-62960995D01*
X123970174Y-62860721D01*
X123949000Y-62754270D01*
X123949000Y-62645730D01*
X123970174Y-62539279D01*
X124011709Y-62439005D01*
X124072012Y-62348755D01*
X124148755Y-62272012D01*
X124239005Y-62211709D01*
X124339279Y-62170174D01*
X124445730Y-62149000D01*
X124554270Y-62149000D01*
X124660721Y-62170174D01*
X124660721Y-62170174D01*
G37*
G36*
X125860721Y-61370174D02*
X125960995Y-61411709D01*
X126051245Y-61472012D01*
X126127988Y-61548755D01*
X126188291Y-61639005D01*
X126229826Y-61739279D01*
X126251000Y-61845730D01*
X126251000Y-61954270D01*
X126229826Y-62060721D01*
X126188291Y-62160995D01*
X126127988Y-62251245D01*
X126051245Y-62327988D01*
X125960995Y-62388291D01*
X125860721Y-62429826D01*
X125754270Y-62451000D01*
X125645730Y-62451000D01*
X125539279Y-62429826D01*
X125439005Y-62388291D01*
X125348755Y-62327988D01*
X125272012Y-62251245D01*
X125211709Y-62160995D01*
X125170174Y-62060721D01*
X125149000Y-61954270D01*
X125149000Y-61845730D01*
X125170174Y-61739279D01*
X125211709Y-61639005D01*
X125272012Y-61548755D01*
X125348755Y-61472012D01*
X125439005Y-61411709D01*
X125539279Y-61370174D01*
X125645730Y-61349000D01*
X125754270Y-61349000D01*
X125860721Y-61370174D01*
X125860721Y-61370174D01*
G37*
G36*
X124660721Y-60570174D02*
X124760995Y-60611709D01*
X124851245Y-60672012D01*
X124927988Y-60748755D01*
X124988291Y-60839005D01*
X125029826Y-60939279D01*
X125051000Y-61045730D01*
X125051000Y-61154270D01*
X125029826Y-61260721D01*
X124988291Y-61360995D01*
X124927988Y-61451245D01*
X124851245Y-61527988D01*
X124760995Y-61588291D01*
X124660721Y-61629826D01*
X124554270Y-61651000D01*
X124445730Y-61651000D01*
X124339279Y-61629826D01*
X124239005Y-61588291D01*
X124148755Y-61527988D01*
X124072012Y-61451245D01*
X124011709Y-61360995D01*
X123970174Y-61260721D01*
X123949000Y-61154270D01*
X123949000Y-61045730D01*
X123970174Y-60939279D01*
X124011709Y-60839005D01*
X124072012Y-60748755D01*
X124148755Y-60672012D01*
X124239005Y-60611709D01*
X124339279Y-60570174D01*
X124445730Y-60549000D01*
X124554270Y-60549000D01*
X124660721Y-60570174D01*
X124660721Y-60570174D01*
G37*
G36*
X125860721Y-59770174D02*
X125960995Y-59811709D01*
X126051245Y-59872012D01*
X126127988Y-59948755D01*
X126188291Y-60039005D01*
X126229826Y-60139279D01*
X126251000Y-60245730D01*
X126251000Y-60354270D01*
X126229826Y-60460721D01*
X126188291Y-60560995D01*
X126127988Y-60651245D01*
X126051245Y-60727988D01*
X125960995Y-60788291D01*
X125860721Y-60829826D01*
X125754270Y-60851000D01*
X125645730Y-60851000D01*
X125539279Y-60829826D01*
X125439005Y-60788291D01*
X125348755Y-60727988D01*
X125272012Y-60651245D01*
X125211709Y-60560995D01*
X125170174Y-60460721D01*
X125149000Y-60354270D01*
X125149000Y-60245730D01*
X125170174Y-60139279D01*
X125211709Y-60039005D01*
X125272012Y-59948755D01*
X125348755Y-59872012D01*
X125439005Y-59811709D01*
X125539279Y-59770174D01*
X125645730Y-59749000D01*
X125754270Y-59749000D01*
X125860721Y-59770174D01*
X125860721Y-59770174D01*
G37*
G36*
X124660721Y-58970174D02*
X124760995Y-59011709D01*
X124851245Y-59072012D01*
X124927988Y-59148755D01*
X124988291Y-59239005D01*
X125029826Y-59339279D01*
X125051000Y-59445730D01*
X125051000Y-59554270D01*
X125029826Y-59660721D01*
X124988291Y-59760995D01*
X124927988Y-59851245D01*
X124851245Y-59927988D01*
X124760995Y-59988291D01*
X124660721Y-60029826D01*
X124554270Y-60051000D01*
X124445730Y-60051000D01*
X124339279Y-60029826D01*
X124239005Y-59988291D01*
X124148755Y-59927988D01*
X124072012Y-59851245D01*
X124011709Y-59760995D01*
X123970174Y-59660721D01*
X123949000Y-59554270D01*
X123949000Y-59445730D01*
X123970174Y-59339279D01*
X124011709Y-59239005D01*
X124072012Y-59148755D01*
X124148755Y-59072012D01*
X124239005Y-59011709D01*
X124339279Y-58970174D01*
X124445730Y-58949000D01*
X124554270Y-58949000D01*
X124660721Y-58970174D01*
X124660721Y-58970174D01*
G37*
G36*
X130365830Y-56264930D02*
X130365833Y-56264931D01*
X130365834Y-56264931D01*
X130573373Y-56327887D01*
X130573375Y-56327888D01*
X130764644Y-56430123D01*
X130932291Y-56567709D01*
X131069877Y-56735356D01*
X131172112Y-56926625D01*
X131235070Y-57134170D01*
X131256327Y-57350000D01*
X131235070Y-57565830D01*
X131172112Y-57773375D01*
X131069877Y-57964644D01*
X130932291Y-58132291D01*
X130764644Y-58269877D01*
X130573375Y-58372112D01*
X130573373Y-58372113D01*
X130365834Y-58435069D01*
X130365833Y-58435069D01*
X130365830Y-58435070D01*
X130204089Y-58451000D01*
X130095911Y-58451000D01*
X129934170Y-58435070D01*
X129934167Y-58435069D01*
X129934166Y-58435069D01*
X129726627Y-58372113D01*
X129726625Y-58372112D01*
X129535356Y-58269877D01*
X129367709Y-58132291D01*
X129230123Y-57964644D01*
X129127888Y-57773375D01*
X129064930Y-57565830D01*
X129043673Y-57350000D01*
X129064930Y-57134170D01*
X129127888Y-56926625D01*
X129230123Y-56735356D01*
X129367709Y-56567709D01*
X129535356Y-56430123D01*
X129726625Y-56327888D01*
X129726627Y-56327887D01*
X129934166Y-56264931D01*
X129934167Y-56264931D01*
X129934170Y-56264930D01*
X130095911Y-56249000D01*
X130204089Y-56249000D01*
X130365830Y-56264930D01*
X130365830Y-56264930D01*
G37*
G36*
X114179294Y-48858633D02*
X114351694Y-48910931D01*
X114351696Y-48910932D01*
X114510583Y-48995859D01*
X114649849Y-49110151D01*
X114714901Y-49189417D01*
X114764140Y-49249416D01*
X114849069Y-49408306D01*
X114901367Y-49580706D01*
X114919025Y-49760000D01*
X114901367Y-49939294D01*
X114849069Y-50111694D01*
X114849068Y-50111696D01*
X114764141Y-50270583D01*
X114649849Y-50409849D01*
X114510583Y-50524141D01*
X114351696Y-50609068D01*
X114351694Y-50609069D01*
X114179294Y-50661367D01*
X114044931Y-50674600D01*
X113955069Y-50674600D01*
X113820706Y-50661367D01*
X113648306Y-50609069D01*
X113648304Y-50609068D01*
X113489417Y-50524141D01*
X113350151Y-50409849D01*
X113235859Y-50270583D01*
X113150932Y-50111696D01*
X113150931Y-50111694D01*
X113098633Y-49939294D01*
X113080975Y-49760000D01*
X113098633Y-49580706D01*
X113150931Y-49408306D01*
X113235860Y-49249416D01*
X113285100Y-49189417D01*
X113350151Y-49110151D01*
X113489417Y-48995859D01*
X113648304Y-48910932D01*
X113648306Y-48910931D01*
X113820706Y-48858633D01*
X113955069Y-48845400D01*
X114044931Y-48845400D01*
X114179294Y-48858633D01*
X114179294Y-48858633D01*
G37*
G36*
X116719294Y-48858633D02*
X116891694Y-48910931D01*
X116891696Y-48910932D01*
X117050583Y-48995859D01*
X117189849Y-49110151D01*
X117254901Y-49189417D01*
X117304140Y-49249416D01*
X117389069Y-49408306D01*
X117441367Y-49580706D01*
X117459025Y-49760000D01*
X117441367Y-49939294D01*
X117389069Y-50111694D01*
X117389068Y-50111696D01*
X117304141Y-50270583D01*
X117189849Y-50409849D01*
X117050583Y-50524141D01*
X116891696Y-50609068D01*
X116891694Y-50609069D01*
X116719294Y-50661367D01*
X116584931Y-50674600D01*
X116495069Y-50674600D01*
X116360706Y-50661367D01*
X116188306Y-50609069D01*
X116188304Y-50609068D01*
X116029417Y-50524141D01*
X115890151Y-50409849D01*
X115775859Y-50270583D01*
X115690932Y-50111696D01*
X115690931Y-50111694D01*
X115638633Y-49939294D01*
X115620975Y-49760000D01*
X115638633Y-49580706D01*
X115690931Y-49408306D01*
X115775860Y-49249416D01*
X115825100Y-49189417D01*
X115890151Y-49110151D01*
X116029417Y-48995859D01*
X116188304Y-48910932D01*
X116188306Y-48910931D01*
X116360706Y-48858633D01*
X116495069Y-48845400D01*
X116584931Y-48845400D01*
X116719294Y-48858633D01*
X116719294Y-48858633D01*
G37*
G36*
X38339294Y-48798633D02*
X38511694Y-48850931D01*
X38511696Y-48850932D01*
X38670583Y-48935859D01*
X38809849Y-49050151D01*
X38924141Y-49189417D01*
X39009068Y-49348304D01*
X39009069Y-49348306D01*
X39061367Y-49520706D01*
X39079025Y-49700000D01*
X39061367Y-49879294D01*
X39009069Y-50051694D01*
X39009068Y-50051696D01*
X38924141Y-50210583D01*
X38809849Y-50349849D01*
X38670583Y-50464141D01*
X38558333Y-50524140D01*
X38511694Y-50549069D01*
X38339294Y-50601367D01*
X38204931Y-50614600D01*
X38115069Y-50614600D01*
X37980706Y-50601367D01*
X37808306Y-50549069D01*
X37761667Y-50524140D01*
X37649417Y-50464141D01*
X37510151Y-50349849D01*
X37395859Y-50210583D01*
X37310932Y-50051696D01*
X37310931Y-50051694D01*
X37258633Y-49879294D01*
X37240975Y-49700000D01*
X37258633Y-49520706D01*
X37310931Y-49348306D01*
X37310932Y-49348304D01*
X37395859Y-49189417D01*
X37510151Y-49050151D01*
X37649417Y-48935859D01*
X37808304Y-48850932D01*
X37808306Y-48850931D01*
X37980706Y-48798633D01*
X38115069Y-48785400D01*
X38204931Y-48785400D01*
X38339294Y-48798633D01*
X38339294Y-48798633D01*
G37*
G36*
X41614600Y-50614600D02*
X39785400Y-50614600D01*
X39785400Y-48785400D01*
X41614600Y-48785400D01*
X41614600Y-50614600D01*
X41614600Y-50614600D01*
G37*
G36*
X116719294Y-46318633D02*
X116891694Y-46370931D01*
X116891696Y-46370932D01*
X117050583Y-46455859D01*
X117189849Y-46570151D01*
X117254901Y-46649417D01*
X117304140Y-46709416D01*
X117389069Y-46868306D01*
X117441367Y-47040706D01*
X117459025Y-47220000D01*
X117441367Y-47399294D01*
X117389069Y-47571694D01*
X117389068Y-47571696D01*
X117304141Y-47730583D01*
X117189849Y-47869849D01*
X117050583Y-47984141D01*
X116891696Y-48069068D01*
X116891694Y-48069069D01*
X116719294Y-48121367D01*
X116584931Y-48134600D01*
X116495069Y-48134600D01*
X116360706Y-48121367D01*
X116188306Y-48069069D01*
X116188304Y-48069068D01*
X116029417Y-47984141D01*
X115890151Y-47869849D01*
X115775859Y-47730583D01*
X115690932Y-47571696D01*
X115690931Y-47571694D01*
X115638633Y-47399294D01*
X115620975Y-47220000D01*
X115638633Y-47040706D01*
X115690931Y-46868306D01*
X115775860Y-46709416D01*
X115825100Y-46649417D01*
X115890151Y-46570151D01*
X116029417Y-46455859D01*
X116188304Y-46370932D01*
X116188306Y-46370931D01*
X116360706Y-46318633D01*
X116495069Y-46305400D01*
X116584931Y-46305400D01*
X116719294Y-46318633D01*
X116719294Y-46318633D01*
G37*
G36*
X114179294Y-46318633D02*
X114351694Y-46370931D01*
X114351696Y-46370932D01*
X114510583Y-46455859D01*
X114649849Y-46570151D01*
X114714901Y-46649417D01*
X114764140Y-46709416D01*
X114849069Y-46868306D01*
X114901367Y-47040706D01*
X114919025Y-47220000D01*
X114901367Y-47399294D01*
X114849069Y-47571694D01*
X114849068Y-47571696D01*
X114764141Y-47730583D01*
X114649849Y-47869849D01*
X114510583Y-47984141D01*
X114351696Y-48069068D01*
X114351694Y-48069069D01*
X114179294Y-48121367D01*
X114044931Y-48134600D01*
X113955069Y-48134600D01*
X113820706Y-48121367D01*
X113648306Y-48069069D01*
X113648304Y-48069068D01*
X113489417Y-47984141D01*
X113350151Y-47869849D01*
X113235859Y-47730583D01*
X113150932Y-47571696D01*
X113150931Y-47571694D01*
X113098633Y-47399294D01*
X113080975Y-47220000D01*
X113098633Y-47040706D01*
X113150931Y-46868306D01*
X113235860Y-46709416D01*
X113285100Y-46649417D01*
X113350151Y-46570151D01*
X113489417Y-46455859D01*
X113648304Y-46370932D01*
X113648306Y-46370931D01*
X113820706Y-46318633D01*
X113955069Y-46305400D01*
X114044931Y-46305400D01*
X114179294Y-46318633D01*
X114179294Y-46318633D01*
G37*
G36*
X40879294Y-46258633D02*
X41051694Y-46310931D01*
X41051696Y-46310932D01*
X41210583Y-46395859D01*
X41349849Y-46510151D01*
X41464141Y-46649417D01*
X41549068Y-46808304D01*
X41549069Y-46808306D01*
X41601367Y-46980706D01*
X41619025Y-47160000D01*
X41601367Y-47339294D01*
X41549069Y-47511694D01*
X41549068Y-47511696D01*
X41464141Y-47670583D01*
X41349849Y-47809849D01*
X41210583Y-47924141D01*
X41098333Y-47984140D01*
X41051694Y-48009069D01*
X40879294Y-48061367D01*
X40744931Y-48074600D01*
X40655069Y-48074600D01*
X40520706Y-48061367D01*
X40348306Y-48009069D01*
X40301667Y-47984140D01*
X40189417Y-47924141D01*
X40050151Y-47809849D01*
X39935859Y-47670583D01*
X39850932Y-47511696D01*
X39850931Y-47511694D01*
X39798633Y-47339294D01*
X39780975Y-47160000D01*
X39798633Y-46980706D01*
X39850931Y-46808306D01*
X39850932Y-46808304D01*
X39935859Y-46649417D01*
X40050151Y-46510151D01*
X40189417Y-46395859D01*
X40348304Y-46310932D01*
X40348306Y-46310931D01*
X40520706Y-46258633D01*
X40655069Y-46245400D01*
X40744931Y-46245400D01*
X40879294Y-46258633D01*
X40879294Y-46258633D01*
G37*
G36*
X38339294Y-46258633D02*
X38511694Y-46310931D01*
X38511696Y-46310932D01*
X38670583Y-46395859D01*
X38809849Y-46510151D01*
X38924141Y-46649417D01*
X39009068Y-46808304D01*
X39009069Y-46808306D01*
X39061367Y-46980706D01*
X39079025Y-47160000D01*
X39061367Y-47339294D01*
X39009069Y-47511694D01*
X39009068Y-47511696D01*
X38924141Y-47670583D01*
X38809849Y-47809849D01*
X38670583Y-47924141D01*
X38558333Y-47984140D01*
X38511694Y-48009069D01*
X38339294Y-48061367D01*
X38204931Y-48074600D01*
X38115069Y-48074600D01*
X37980706Y-48061367D01*
X37808306Y-48009069D01*
X37761667Y-47984140D01*
X37649417Y-47924141D01*
X37510151Y-47809849D01*
X37395859Y-47670583D01*
X37310932Y-47511696D01*
X37310931Y-47511694D01*
X37258633Y-47339294D01*
X37240975Y-47160000D01*
X37258633Y-46980706D01*
X37310931Y-46808306D01*
X37310932Y-46808304D01*
X37395859Y-46649417D01*
X37510151Y-46510151D01*
X37649417Y-46395859D01*
X37808304Y-46310932D01*
X37808306Y-46310931D01*
X37980706Y-46258633D01*
X38115069Y-46245400D01*
X38204931Y-46245400D01*
X38339294Y-46258633D01*
X38339294Y-46258633D01*
G37*
G36*
X53015670Y-37666332D02*
X53769140Y-37816206D01*
X54560972Y-38144193D01*
X55273601Y-38620357D01*
X55879643Y-39226399D01*
X56355807Y-39939028D01*
X56683794Y-40730860D01*
X56795199Y-41290932D01*
X56851000Y-41571463D01*
X56851000Y-42428537D01*
X56847928Y-42443980D01*
X56683794Y-43269140D01*
X56355807Y-44060972D01*
X55879643Y-44773601D01*
X55273601Y-45379643D01*
X54560972Y-45855807D01*
X53769140Y-46183794D01*
X53091256Y-46318633D01*
X52928537Y-46351000D01*
X52071463Y-46351000D01*
X51908744Y-46318633D01*
X51230860Y-46183794D01*
X50439028Y-45855807D01*
X49726399Y-45379643D01*
X49120357Y-44773601D01*
X48644193Y-44060972D01*
X48316206Y-43269140D01*
X48152072Y-42443980D01*
X48149000Y-42428537D01*
X48149000Y-41571463D01*
X48204801Y-41290932D01*
X48316206Y-40730860D01*
X48644193Y-39939028D01*
X49120357Y-39226399D01*
X49726399Y-38620357D01*
X50439028Y-38144193D01*
X51230860Y-37816206D01*
X51984330Y-37666332D01*
X52071463Y-37649000D01*
X52928537Y-37649000D01*
X53015670Y-37666332D01*
X53015670Y-37666332D01*
G37*
G36*
X116719294Y-43778633D02*
X116891694Y-43830931D01*
X116891696Y-43830932D01*
X117050583Y-43915859D01*
X117189849Y-44030151D01*
X117254901Y-44109417D01*
X117304140Y-44169416D01*
X117389069Y-44328306D01*
X117441367Y-44500706D01*
X117459025Y-44680000D01*
X117441367Y-44859294D01*
X117402418Y-44987688D01*
X117389068Y-45031696D01*
X117304141Y-45190583D01*
X117189849Y-45329849D01*
X117050583Y-45444141D01*
X116891696Y-45529068D01*
X116891694Y-45529069D01*
X116719294Y-45581367D01*
X116584931Y-45594600D01*
X116495069Y-45594600D01*
X116360706Y-45581367D01*
X116188306Y-45529069D01*
X116188304Y-45529068D01*
X116029417Y-45444141D01*
X115890151Y-45329849D01*
X115775859Y-45190583D01*
X115690932Y-45031696D01*
X115677582Y-44987688D01*
X115638633Y-44859294D01*
X115620975Y-44680000D01*
X115638633Y-44500706D01*
X115690931Y-44328306D01*
X115775860Y-44169416D01*
X115825100Y-44109417D01*
X115890151Y-44030151D01*
X116029417Y-43915859D01*
X116188304Y-43830932D01*
X116188306Y-43830931D01*
X116360706Y-43778633D01*
X116495069Y-43765400D01*
X116584931Y-43765400D01*
X116719294Y-43778633D01*
X116719294Y-43778633D01*
G37*
G36*
X114179294Y-43778633D02*
X114351694Y-43830931D01*
X114351696Y-43830932D01*
X114510583Y-43915859D01*
X114649849Y-44030151D01*
X114714901Y-44109417D01*
X114764140Y-44169416D01*
X114849069Y-44328306D01*
X114901367Y-44500706D01*
X114919025Y-44680000D01*
X114901367Y-44859294D01*
X114862418Y-44987688D01*
X114849068Y-45031696D01*
X114764141Y-45190583D01*
X114649849Y-45329849D01*
X114510583Y-45444141D01*
X114351696Y-45529068D01*
X114351694Y-45529069D01*
X114179294Y-45581367D01*
X114044931Y-45594600D01*
X113955069Y-45594600D01*
X113820706Y-45581367D01*
X113648306Y-45529069D01*
X113648304Y-45529068D01*
X113489417Y-45444141D01*
X113350151Y-45329849D01*
X113235859Y-45190583D01*
X113150932Y-45031696D01*
X113137582Y-44987688D01*
X113098633Y-44859294D01*
X113080975Y-44680000D01*
X113098633Y-44500706D01*
X113150931Y-44328306D01*
X113235860Y-44169416D01*
X113285100Y-44109417D01*
X113350151Y-44030151D01*
X113489417Y-43915859D01*
X113648304Y-43830932D01*
X113648306Y-43830931D01*
X113820706Y-43778633D01*
X113955069Y-43765400D01*
X114044931Y-43765400D01*
X114179294Y-43778633D01*
X114179294Y-43778633D01*
G37*
G36*
X40879294Y-43718633D02*
X41051694Y-43770931D01*
X41051696Y-43770932D01*
X41210583Y-43855859D01*
X41349849Y-43970151D01*
X41464141Y-44109417D01*
X41549068Y-44268304D01*
X41549069Y-44268306D01*
X41601367Y-44440706D01*
X41619025Y-44620000D01*
X41601367Y-44799294D01*
X41569109Y-44905631D01*
X41549068Y-44971696D01*
X41464141Y-45130583D01*
X41349849Y-45269849D01*
X41210583Y-45384141D01*
X41051696Y-45469068D01*
X41051694Y-45469069D01*
X40879294Y-45521367D01*
X40744931Y-45534600D01*
X40655069Y-45534600D01*
X40520706Y-45521367D01*
X40348306Y-45469069D01*
X40348304Y-45469068D01*
X40189417Y-45384141D01*
X40050151Y-45269849D01*
X39935859Y-45130583D01*
X39850932Y-44971696D01*
X39830891Y-44905631D01*
X39798633Y-44799294D01*
X39780975Y-44620000D01*
X39798633Y-44440706D01*
X39850931Y-44268306D01*
X39850932Y-44268304D01*
X39935859Y-44109417D01*
X40050151Y-43970151D01*
X40189417Y-43855859D01*
X40348304Y-43770932D01*
X40348306Y-43770931D01*
X40520706Y-43718633D01*
X40655069Y-43705400D01*
X40744931Y-43705400D01*
X40879294Y-43718633D01*
X40879294Y-43718633D01*
G37*
G36*
X38339294Y-43718633D02*
X38511694Y-43770931D01*
X38511696Y-43770932D01*
X38670583Y-43855859D01*
X38809849Y-43970151D01*
X38924141Y-44109417D01*
X39009068Y-44268304D01*
X39009069Y-44268306D01*
X39061367Y-44440706D01*
X39079025Y-44620000D01*
X39061367Y-44799294D01*
X39029109Y-44905631D01*
X39009068Y-44971696D01*
X38924141Y-45130583D01*
X38809849Y-45269849D01*
X38670583Y-45384141D01*
X38511696Y-45469068D01*
X38511694Y-45469069D01*
X38339294Y-45521367D01*
X38204931Y-45534600D01*
X38115069Y-45534600D01*
X37980706Y-45521367D01*
X37808306Y-45469069D01*
X37808304Y-45469068D01*
X37649417Y-45384141D01*
X37510151Y-45269849D01*
X37395859Y-45130583D01*
X37310932Y-44971696D01*
X37290891Y-44905631D01*
X37258633Y-44799294D01*
X37240975Y-44620000D01*
X37258633Y-44440706D01*
X37310931Y-44268306D01*
X37310932Y-44268304D01*
X37395859Y-44109417D01*
X37510151Y-43970151D01*
X37649417Y-43855859D01*
X37808304Y-43770932D01*
X37808306Y-43770931D01*
X37980706Y-43718633D01*
X38115069Y-43705400D01*
X38204931Y-43705400D01*
X38339294Y-43718633D01*
X38339294Y-43718633D01*
G37*
G36*
X114179294Y-41238633D02*
X114351694Y-41290931D01*
X114351696Y-41290932D01*
X114510583Y-41375859D01*
X114649849Y-41490151D01*
X114714901Y-41569417D01*
X114764140Y-41629416D01*
X114849069Y-41788306D01*
X114901367Y-41960706D01*
X114919025Y-42140000D01*
X114901367Y-42319294D01*
X114863543Y-42443980D01*
X114849068Y-42491696D01*
X114764141Y-42650583D01*
X114649849Y-42789849D01*
X114510583Y-42904141D01*
X114351696Y-42989068D01*
X114351694Y-42989069D01*
X114179294Y-43041367D01*
X114044931Y-43054600D01*
X113955069Y-43054600D01*
X113820706Y-43041367D01*
X113648306Y-42989069D01*
X113648304Y-42989068D01*
X113489417Y-42904141D01*
X113350151Y-42789849D01*
X113235859Y-42650583D01*
X113150932Y-42491696D01*
X113136457Y-42443980D01*
X113098633Y-42319294D01*
X113080975Y-42140000D01*
X113098633Y-41960706D01*
X113150931Y-41788306D01*
X113235860Y-41629416D01*
X113285100Y-41569417D01*
X113350151Y-41490151D01*
X113489417Y-41375859D01*
X113648304Y-41290932D01*
X113648306Y-41290931D01*
X113820706Y-41238633D01*
X113955069Y-41225400D01*
X114044931Y-41225400D01*
X114179294Y-41238633D01*
X114179294Y-41238633D01*
G37*
G36*
X116719294Y-41238633D02*
X116891694Y-41290931D01*
X116891696Y-41290932D01*
X117050583Y-41375859D01*
X117189849Y-41490151D01*
X117254901Y-41569417D01*
X117304140Y-41629416D01*
X117389069Y-41788306D01*
X117441367Y-41960706D01*
X117459025Y-42140000D01*
X117441367Y-42319294D01*
X117403543Y-42443980D01*
X117389068Y-42491696D01*
X117304141Y-42650583D01*
X117189849Y-42789849D01*
X117050583Y-42904141D01*
X116891696Y-42989068D01*
X116891694Y-42989069D01*
X116719294Y-43041367D01*
X116584931Y-43054600D01*
X116495069Y-43054600D01*
X116360706Y-43041367D01*
X116188306Y-42989069D01*
X116188304Y-42989068D01*
X116029417Y-42904141D01*
X115890151Y-42789849D01*
X115775859Y-42650583D01*
X115690932Y-42491696D01*
X115676457Y-42443980D01*
X115638633Y-42319294D01*
X115620975Y-42140000D01*
X115638633Y-41960706D01*
X115690931Y-41788306D01*
X115775860Y-41629416D01*
X115825100Y-41569417D01*
X115890151Y-41490151D01*
X116029417Y-41375859D01*
X116188304Y-41290932D01*
X116188306Y-41290931D01*
X116360706Y-41238633D01*
X116495069Y-41225400D01*
X116584931Y-41225400D01*
X116719294Y-41238633D01*
X116719294Y-41238633D01*
G37*
G36*
X38339294Y-41178633D02*
X38511694Y-41230931D01*
X38511696Y-41230932D01*
X38670583Y-41315859D01*
X38809849Y-41430151D01*
X38924141Y-41569417D01*
X38983586Y-41680631D01*
X39009069Y-41728306D01*
X39061367Y-41900706D01*
X39079025Y-42080000D01*
X39061367Y-42259294D01*
X39009069Y-42431694D01*
X39009068Y-42431696D01*
X38924141Y-42590583D01*
X38809849Y-42729849D01*
X38670583Y-42844141D01*
X38558333Y-42904140D01*
X38511694Y-42929069D01*
X38339294Y-42981367D01*
X38204931Y-42994600D01*
X38115069Y-42994600D01*
X37980706Y-42981367D01*
X37808306Y-42929069D01*
X37761667Y-42904140D01*
X37649417Y-42844141D01*
X37510151Y-42729849D01*
X37395859Y-42590583D01*
X37310932Y-42431696D01*
X37310931Y-42431694D01*
X37258633Y-42259294D01*
X37240975Y-42080000D01*
X37258633Y-41900706D01*
X37310931Y-41728306D01*
X37336414Y-41680631D01*
X37395859Y-41569417D01*
X37510151Y-41430151D01*
X37649417Y-41315859D01*
X37808304Y-41230932D01*
X37808306Y-41230931D01*
X37980706Y-41178633D01*
X38115069Y-41165400D01*
X38204931Y-41165400D01*
X38339294Y-41178633D01*
X38339294Y-41178633D01*
G37*
G36*
X40879294Y-41178633D02*
X41051694Y-41230931D01*
X41051696Y-41230932D01*
X41210583Y-41315859D01*
X41349849Y-41430151D01*
X41464141Y-41569417D01*
X41523586Y-41680631D01*
X41549069Y-41728306D01*
X41601367Y-41900706D01*
X41619025Y-42080000D01*
X41601367Y-42259294D01*
X41549069Y-42431694D01*
X41549068Y-42431696D01*
X41464141Y-42590583D01*
X41349849Y-42729849D01*
X41210583Y-42844141D01*
X41098333Y-42904140D01*
X41051694Y-42929069D01*
X40879294Y-42981367D01*
X40744931Y-42994600D01*
X40655069Y-42994600D01*
X40520706Y-42981367D01*
X40348306Y-42929069D01*
X40301667Y-42904140D01*
X40189417Y-42844141D01*
X40050151Y-42729849D01*
X39935859Y-42590583D01*
X39850932Y-42431696D01*
X39850931Y-42431694D01*
X39798633Y-42259294D01*
X39780975Y-42080000D01*
X39798633Y-41900706D01*
X39850931Y-41728306D01*
X39876414Y-41680631D01*
X39935859Y-41569417D01*
X40050151Y-41430151D01*
X40189417Y-41315859D01*
X40348304Y-41230932D01*
X40348306Y-41230931D01*
X40520706Y-41178633D01*
X40655069Y-41165400D01*
X40744931Y-41165400D01*
X40879294Y-41178633D01*
X40879294Y-41178633D01*
G37*
G36*
X127134239Y-34911467D02*
X127448282Y-34973934D01*
X128039926Y-35219001D01*
X128329523Y-35412504D01*
X128572395Y-35574786D01*
X129025214Y-36027605D01*
X129025216Y-36027608D01*
X129380999Y-36560074D01*
X129502724Y-36853944D01*
X129626066Y-37151719D01*
X129751000Y-37779803D01*
X129751000Y-38420197D01*
X129697147Y-38690932D01*
X129626066Y-39048282D01*
X129380999Y-39639926D01*
X129066515Y-40110584D01*
X129025214Y-40172395D01*
X128572395Y-40625214D01*
X128572392Y-40625216D01*
X128039926Y-40980999D01*
X127448282Y-41226066D01*
X127385103Y-41238633D01*
X126820197Y-41351000D01*
X126179803Y-41351000D01*
X125614897Y-41238633D01*
X125551718Y-41226066D01*
X124960074Y-40980999D01*
X124427608Y-40625216D01*
X124427605Y-40625214D01*
X123974786Y-40172395D01*
X123933485Y-40110584D01*
X123619001Y-39639926D01*
X123373934Y-39048282D01*
X123302853Y-38690932D01*
X123249000Y-38420197D01*
X123249000Y-37779803D01*
X123373934Y-37151719D01*
X123497276Y-36853944D01*
X123619001Y-36560074D01*
X123974784Y-36027608D01*
X123974786Y-36027605D01*
X124427605Y-35574786D01*
X124670477Y-35412504D01*
X124960074Y-35219001D01*
X125551718Y-34973934D01*
X125865761Y-34911467D01*
X126179803Y-34849000D01*
X126820197Y-34849000D01*
X127134239Y-34911467D01*
X127134239Y-34911467D01*
G37*
G36*
X114914600Y-40514600D02*
X113085400Y-40514600D01*
X113085400Y-38685400D01*
X114914600Y-38685400D01*
X114914600Y-40514600D01*
X114914600Y-40514600D01*
G37*
G36*
X116719294Y-38698633D02*
X116891694Y-38750931D01*
X116891696Y-38750932D01*
X117050583Y-38835859D01*
X117189849Y-38950151D01*
X117304141Y-39089417D01*
X117383472Y-39237834D01*
X117389069Y-39248306D01*
X117441367Y-39420706D01*
X117459025Y-39600000D01*
X117441367Y-39779294D01*
X117389069Y-39951694D01*
X117389068Y-39951696D01*
X117304141Y-40110583D01*
X117189849Y-40249849D01*
X117050583Y-40364141D01*
X116891696Y-40449068D01*
X116891694Y-40449069D01*
X116719294Y-40501367D01*
X116584931Y-40514600D01*
X116495069Y-40514600D01*
X116360706Y-40501367D01*
X116188306Y-40449069D01*
X116188304Y-40449068D01*
X116029417Y-40364141D01*
X115890151Y-40249849D01*
X115775859Y-40110583D01*
X115690932Y-39951696D01*
X115690931Y-39951694D01*
X115638633Y-39779294D01*
X115620975Y-39600000D01*
X115638633Y-39420706D01*
X115690931Y-39248306D01*
X115696528Y-39237834D01*
X115775859Y-39089417D01*
X115890151Y-38950151D01*
X116029417Y-38835859D01*
X116188304Y-38750932D01*
X116188306Y-38750931D01*
X116360706Y-38698633D01*
X116495069Y-38685400D01*
X116584931Y-38685400D01*
X116719294Y-38698633D01*
X116719294Y-38698633D01*
G37*
G36*
X38339294Y-38638633D02*
X38511694Y-38690931D01*
X38511696Y-38690932D01*
X38670583Y-38775859D01*
X38809849Y-38890151D01*
X38924141Y-39029417D01*
X38996158Y-39164152D01*
X39009069Y-39188306D01*
X39061367Y-39360706D01*
X39079025Y-39540000D01*
X39061367Y-39719294D01*
X39016949Y-39865717D01*
X39009068Y-39891696D01*
X38924141Y-40050583D01*
X38809849Y-40189849D01*
X38670583Y-40304141D01*
X38558333Y-40364140D01*
X38511694Y-40389069D01*
X38339294Y-40441367D01*
X38204931Y-40454600D01*
X38115069Y-40454600D01*
X37980706Y-40441367D01*
X37808306Y-40389069D01*
X37761667Y-40364140D01*
X37649417Y-40304141D01*
X37510151Y-40189849D01*
X37395859Y-40050583D01*
X37310932Y-39891696D01*
X37303051Y-39865717D01*
X37258633Y-39719294D01*
X37240975Y-39540000D01*
X37258633Y-39360706D01*
X37310931Y-39188306D01*
X37323842Y-39164152D01*
X37395859Y-39029417D01*
X37510151Y-38890151D01*
X37649417Y-38775859D01*
X37808304Y-38690932D01*
X37808306Y-38690931D01*
X37980706Y-38638633D01*
X38115069Y-38625400D01*
X38204931Y-38625400D01*
X38339294Y-38638633D01*
X38339294Y-38638633D01*
G37*
G36*
X40879294Y-38638633D02*
X41051694Y-38690931D01*
X41051696Y-38690932D01*
X41210583Y-38775859D01*
X41349849Y-38890151D01*
X41464141Y-39029417D01*
X41536158Y-39164152D01*
X41549069Y-39188306D01*
X41601367Y-39360706D01*
X41619025Y-39540000D01*
X41601367Y-39719294D01*
X41556949Y-39865717D01*
X41549068Y-39891696D01*
X41464141Y-40050583D01*
X41349849Y-40189849D01*
X41210583Y-40304141D01*
X41098333Y-40364140D01*
X41051694Y-40389069D01*
X40879294Y-40441367D01*
X40744931Y-40454600D01*
X40655069Y-40454600D01*
X40520706Y-40441367D01*
X40348306Y-40389069D01*
X40301667Y-40364140D01*
X40189417Y-40304141D01*
X40050151Y-40189849D01*
X39935859Y-40050583D01*
X39850932Y-39891696D01*
X39843051Y-39865717D01*
X39798633Y-39719294D01*
X39780975Y-39540000D01*
X39798633Y-39360706D01*
X39850931Y-39188306D01*
X39863842Y-39164152D01*
X39935859Y-39029417D01*
X40050151Y-38890151D01*
X40189417Y-38775859D01*
X40348304Y-38690932D01*
X40348306Y-38690931D01*
X40520706Y-38638633D01*
X40655069Y-38625400D01*
X40744931Y-38625400D01*
X40879294Y-38638633D01*
X40879294Y-38638633D01*
G37*
G36*
X87562643Y-34309919D02*
X87628827Y-34316437D01*
X87742053Y-34350784D01*
X87798667Y-34367957D01*
X87937287Y-34442052D01*
X87955191Y-34451622D01*
X87990929Y-34480952D01*
X88092386Y-34564214D01*
X88175648Y-34665671D01*
X88204978Y-34701409D01*
X88204979Y-34701411D01*
X88288643Y-34857933D01*
X88288643Y-34857934D01*
X88340163Y-35027773D01*
X88357559Y-35204400D01*
X88340163Y-35381027D01*
X88308207Y-35486371D01*
X88288643Y-35550867D01*
X88232672Y-35655580D01*
X88204978Y-35707391D01*
X88175648Y-35743129D01*
X88092386Y-35844586D01*
X87990929Y-35927848D01*
X87955191Y-35957178D01*
X87955189Y-35957179D01*
X87798667Y-36040843D01*
X87742053Y-36058016D01*
X87628827Y-36092363D01*
X87562642Y-36098882D01*
X87496460Y-36105400D01*
X87407940Y-36105400D01*
X87341758Y-36098882D01*
X87275573Y-36092363D01*
X87162347Y-36058016D01*
X87105733Y-36040843D01*
X86949211Y-35957179D01*
X86949209Y-35957178D01*
X86913471Y-35927848D01*
X86812014Y-35844586D01*
X86728752Y-35743129D01*
X86699422Y-35707391D01*
X86671728Y-35655580D01*
X86615757Y-35550867D01*
X86596193Y-35486371D01*
X86564237Y-35381027D01*
X86546841Y-35204400D01*
X86564237Y-35027773D01*
X86615757Y-34857934D01*
X86615757Y-34857933D01*
X86699421Y-34701411D01*
X86699422Y-34701409D01*
X86728752Y-34665671D01*
X86812014Y-34564214D01*
X86913471Y-34480952D01*
X86949209Y-34451622D01*
X86967113Y-34442052D01*
X87105733Y-34367957D01*
X87162347Y-34350784D01*
X87275573Y-34316437D01*
X87341757Y-34309919D01*
X87407940Y-34303400D01*
X87496460Y-34303400D01*
X87562643Y-34309919D01*
X87562643Y-34309919D01*
G37*
G36*
X81850800Y-36105400D02*
X80048800Y-36105400D01*
X80048800Y-34303400D01*
X81850800Y-34303400D01*
X81850800Y-36105400D01*
X81850800Y-36105400D01*
G37*
G36*
X78520243Y-34309919D02*
X78586427Y-34316437D01*
X78699653Y-34350784D01*
X78756267Y-34367957D01*
X78894887Y-34442052D01*
X78912791Y-34451622D01*
X78948529Y-34480952D01*
X79049986Y-34564214D01*
X79133248Y-34665671D01*
X79162578Y-34701409D01*
X79162579Y-34701411D01*
X79246243Y-34857933D01*
X79246243Y-34857934D01*
X79297763Y-35027773D01*
X79315159Y-35204400D01*
X79297763Y-35381027D01*
X79265807Y-35486371D01*
X79246243Y-35550867D01*
X79190272Y-35655580D01*
X79162578Y-35707391D01*
X79133248Y-35743129D01*
X79049986Y-35844586D01*
X78948529Y-35927848D01*
X78912791Y-35957178D01*
X78912789Y-35957179D01*
X78756267Y-36040843D01*
X78699653Y-36058016D01*
X78586427Y-36092363D01*
X78520242Y-36098882D01*
X78454060Y-36105400D01*
X78365540Y-36105400D01*
X78299358Y-36098882D01*
X78233173Y-36092363D01*
X78119947Y-36058016D01*
X78063333Y-36040843D01*
X77906811Y-35957179D01*
X77906809Y-35957178D01*
X77871071Y-35927848D01*
X77769614Y-35844586D01*
X77686352Y-35743129D01*
X77657022Y-35707391D01*
X77629328Y-35655580D01*
X77573357Y-35550867D01*
X77553793Y-35486371D01*
X77521837Y-35381027D01*
X77504441Y-35204400D01*
X77521837Y-35027773D01*
X77573357Y-34857934D01*
X77573357Y-34857933D01*
X77657021Y-34701411D01*
X77657022Y-34701409D01*
X77686352Y-34665671D01*
X77769614Y-34564214D01*
X77871071Y-34480952D01*
X77906809Y-34451622D01*
X77924713Y-34442052D01*
X78063333Y-34367957D01*
X78119947Y-34350784D01*
X78233173Y-34316437D01*
X78299357Y-34309919D01*
X78365540Y-34303400D01*
X78454060Y-34303400D01*
X78520243Y-34309919D01*
X78520243Y-34309919D01*
G37*
G36*
X75980243Y-34309919D02*
X76046427Y-34316437D01*
X76159653Y-34350784D01*
X76216267Y-34367957D01*
X76354887Y-34442052D01*
X76372791Y-34451622D01*
X76408529Y-34480952D01*
X76509986Y-34564214D01*
X76593248Y-34665671D01*
X76622578Y-34701409D01*
X76622579Y-34701411D01*
X76706243Y-34857933D01*
X76706243Y-34857934D01*
X76757763Y-35027773D01*
X76775159Y-35204400D01*
X76757763Y-35381027D01*
X76725807Y-35486371D01*
X76706243Y-35550867D01*
X76650272Y-35655580D01*
X76622578Y-35707391D01*
X76593248Y-35743129D01*
X76509986Y-35844586D01*
X76408529Y-35927848D01*
X76372791Y-35957178D01*
X76372789Y-35957179D01*
X76216267Y-36040843D01*
X76159653Y-36058016D01*
X76046427Y-36092363D01*
X75980242Y-36098882D01*
X75914060Y-36105400D01*
X75825540Y-36105400D01*
X75759358Y-36098882D01*
X75693173Y-36092363D01*
X75579947Y-36058016D01*
X75523333Y-36040843D01*
X75366811Y-35957179D01*
X75366809Y-35957178D01*
X75331071Y-35927848D01*
X75229614Y-35844586D01*
X75146352Y-35743129D01*
X75117022Y-35707391D01*
X75089328Y-35655580D01*
X75033357Y-35550867D01*
X75013793Y-35486371D01*
X74981837Y-35381027D01*
X74964441Y-35204400D01*
X74981837Y-35027773D01*
X75033357Y-34857934D01*
X75033357Y-34857933D01*
X75117021Y-34701411D01*
X75117022Y-34701409D01*
X75146352Y-34665671D01*
X75229614Y-34564214D01*
X75331071Y-34480952D01*
X75366809Y-34451622D01*
X75384713Y-34442052D01*
X75523333Y-34367957D01*
X75579947Y-34350784D01*
X75693173Y-34316437D01*
X75759357Y-34309919D01*
X75825540Y-34303400D01*
X75914060Y-34303400D01*
X75980243Y-34309919D01*
X75980243Y-34309919D01*
G37*
G36*
X73440243Y-34309919D02*
X73506427Y-34316437D01*
X73619653Y-34350784D01*
X73676267Y-34367957D01*
X73814887Y-34442052D01*
X73832791Y-34451622D01*
X73868529Y-34480952D01*
X73969986Y-34564214D01*
X74053248Y-34665671D01*
X74082578Y-34701409D01*
X74082579Y-34701411D01*
X74166243Y-34857933D01*
X74166243Y-34857934D01*
X74217763Y-35027773D01*
X74235159Y-35204400D01*
X74217763Y-35381027D01*
X74185807Y-35486371D01*
X74166243Y-35550867D01*
X74110272Y-35655580D01*
X74082578Y-35707391D01*
X74053248Y-35743129D01*
X73969986Y-35844586D01*
X73868529Y-35927848D01*
X73832791Y-35957178D01*
X73832789Y-35957179D01*
X73676267Y-36040843D01*
X73619653Y-36058016D01*
X73506427Y-36092363D01*
X73440242Y-36098882D01*
X73374060Y-36105400D01*
X73285540Y-36105400D01*
X73219358Y-36098882D01*
X73153173Y-36092363D01*
X73039947Y-36058016D01*
X72983333Y-36040843D01*
X72826811Y-35957179D01*
X72826809Y-35957178D01*
X72791071Y-35927848D01*
X72689614Y-35844586D01*
X72606352Y-35743129D01*
X72577022Y-35707391D01*
X72549328Y-35655580D01*
X72493357Y-35550867D01*
X72473793Y-35486371D01*
X72441837Y-35381027D01*
X72424441Y-35204400D01*
X72441837Y-35027773D01*
X72493357Y-34857934D01*
X72493357Y-34857933D01*
X72577021Y-34701411D01*
X72577022Y-34701409D01*
X72606352Y-34665671D01*
X72689614Y-34564214D01*
X72791071Y-34480952D01*
X72826809Y-34451622D01*
X72844713Y-34442052D01*
X72983333Y-34367957D01*
X73039947Y-34350784D01*
X73153173Y-34316437D01*
X73219357Y-34309919D01*
X73285540Y-34303400D01*
X73374060Y-34303400D01*
X73440243Y-34309919D01*
X73440243Y-34309919D01*
G37*
G36*
X70900243Y-34309919D02*
X70966427Y-34316437D01*
X71079653Y-34350784D01*
X71136267Y-34367957D01*
X71274887Y-34442052D01*
X71292791Y-34451622D01*
X71328529Y-34480952D01*
X71429986Y-34564214D01*
X71513248Y-34665671D01*
X71542578Y-34701409D01*
X71542579Y-34701411D01*
X71626243Y-34857933D01*
X71626243Y-34857934D01*
X71677763Y-35027773D01*
X71695159Y-35204400D01*
X71677763Y-35381027D01*
X71645807Y-35486371D01*
X71626243Y-35550867D01*
X71570272Y-35655580D01*
X71542578Y-35707391D01*
X71513248Y-35743129D01*
X71429986Y-35844586D01*
X71328529Y-35927848D01*
X71292791Y-35957178D01*
X71292789Y-35957179D01*
X71136267Y-36040843D01*
X71079653Y-36058016D01*
X70966427Y-36092363D01*
X70900242Y-36098882D01*
X70834060Y-36105400D01*
X70745540Y-36105400D01*
X70679358Y-36098882D01*
X70613173Y-36092363D01*
X70499947Y-36058016D01*
X70443333Y-36040843D01*
X70286811Y-35957179D01*
X70286809Y-35957178D01*
X70251071Y-35927848D01*
X70149614Y-35844586D01*
X70066352Y-35743129D01*
X70037022Y-35707391D01*
X70009328Y-35655580D01*
X69953357Y-35550867D01*
X69933793Y-35486371D01*
X69901837Y-35381027D01*
X69884441Y-35204400D01*
X69901837Y-35027773D01*
X69953357Y-34857934D01*
X69953357Y-34857933D01*
X70037021Y-34701411D01*
X70037022Y-34701409D01*
X70066352Y-34665671D01*
X70149614Y-34564214D01*
X70251071Y-34480952D01*
X70286809Y-34451622D01*
X70304713Y-34442052D01*
X70443333Y-34367957D01*
X70499947Y-34350784D01*
X70613173Y-34316437D01*
X70679357Y-34309919D01*
X70745540Y-34303400D01*
X70834060Y-34303400D01*
X70900243Y-34309919D01*
X70900243Y-34309919D01*
G37*
G36*
X90102643Y-34309919D02*
X90168827Y-34316437D01*
X90282053Y-34350784D01*
X90338667Y-34367957D01*
X90477287Y-34442052D01*
X90495191Y-34451622D01*
X90530929Y-34480952D01*
X90632386Y-34564214D01*
X90715648Y-34665671D01*
X90744978Y-34701409D01*
X90744979Y-34701411D01*
X90828643Y-34857933D01*
X90828643Y-34857934D01*
X90880163Y-35027773D01*
X90897559Y-35204400D01*
X90880163Y-35381027D01*
X90848207Y-35486371D01*
X90828643Y-35550867D01*
X90772672Y-35655580D01*
X90744978Y-35707391D01*
X90715648Y-35743129D01*
X90632386Y-35844586D01*
X90530929Y-35927848D01*
X90495191Y-35957178D01*
X90495189Y-35957179D01*
X90338667Y-36040843D01*
X90282053Y-36058016D01*
X90168827Y-36092363D01*
X90102642Y-36098882D01*
X90036460Y-36105400D01*
X89947940Y-36105400D01*
X89881758Y-36098882D01*
X89815573Y-36092363D01*
X89702347Y-36058016D01*
X89645733Y-36040843D01*
X89489211Y-35957179D01*
X89489209Y-35957178D01*
X89453471Y-35927848D01*
X89352014Y-35844586D01*
X89268752Y-35743129D01*
X89239422Y-35707391D01*
X89211728Y-35655580D01*
X89155757Y-35550867D01*
X89136193Y-35486371D01*
X89104237Y-35381027D01*
X89086841Y-35204400D01*
X89104237Y-35027773D01*
X89155757Y-34857934D01*
X89155757Y-34857933D01*
X89239421Y-34701411D01*
X89239422Y-34701409D01*
X89268752Y-34665671D01*
X89352014Y-34564214D01*
X89453471Y-34480952D01*
X89489209Y-34451622D01*
X89507113Y-34442052D01*
X89645733Y-34367957D01*
X89702347Y-34350784D01*
X89815573Y-34316437D01*
X89881757Y-34309919D01*
X89947940Y-34303400D01*
X90036460Y-34303400D01*
X90102643Y-34309919D01*
X90102643Y-34309919D01*
G37*
G36*
X93433200Y-36105400D02*
X91631200Y-36105400D01*
X91631200Y-34303400D01*
X93433200Y-34303400D01*
X93433200Y-36105400D01*
X93433200Y-36105400D01*
G37*
M02*
