G04 #@! TF.GenerationSoftware,KiCad,Pcbnew,(5.0.2)-1*
G04 #@! TF.CreationDate,2020-01-29T02:21:28+01:00*
G04 #@! TF.ProjectId,fan_controller,66616e5f-636f-46e7-9472-6f6c6c65722e,rev?*
G04 #@! TF.SameCoordinates,Original*
G04 #@! TF.FileFunction,Legend,Top*
G04 #@! TF.FilePolarity,Positive*
%FSLAX46Y46*%
G04 Gerber Fmt 4.6, Leading zero omitted, Abs format (unit mm)*
G04 Created by KiCad (PCBNEW (5.0.2)-1) date 29.01.2020 02:21:28*
%MOMM*%
%LPD*%
G01*
G04 APERTURE LIST*
%ADD10C,0.300000*%
%ADD11C,0.200000*%
%ADD12C,0.120000*%
%ADD13C,0.150000*%
G04 APERTURE END LIST*
D10*
X73363414Y-38816671D02*
X73363414Y-37316671D01*
X74934842Y-38673814D02*
X74863414Y-38745242D01*
X74649128Y-38816671D01*
X74506271Y-38816671D01*
X74291985Y-38745242D01*
X74149128Y-38602385D01*
X74077700Y-38459528D01*
X74006271Y-38173814D01*
X74006271Y-37959528D01*
X74077700Y-37673814D01*
X74149128Y-37530957D01*
X74291985Y-37388100D01*
X74506271Y-37316671D01*
X74649128Y-37316671D01*
X74863414Y-37388100D01*
X74934842Y-37459528D01*
X75506271Y-38745242D02*
X75720557Y-38816671D01*
X76077700Y-38816671D01*
X76220557Y-38745242D01*
X76291985Y-38673814D01*
X76363414Y-38530957D01*
X76363414Y-38388100D01*
X76291985Y-38245242D01*
X76220557Y-38173814D01*
X76077700Y-38102385D01*
X75791985Y-38030957D01*
X75649128Y-37959528D01*
X75577700Y-37888100D01*
X75506271Y-37745242D01*
X75506271Y-37602385D01*
X75577700Y-37459528D01*
X75649128Y-37388100D01*
X75791985Y-37316671D01*
X76149128Y-37316671D01*
X76363414Y-37388100D01*
X77006271Y-38816671D02*
X77006271Y-37316671D01*
X77577700Y-37316671D01*
X77720557Y-37388100D01*
X77791985Y-37459528D01*
X77863414Y-37602385D01*
X77863414Y-37816671D01*
X77791985Y-37959528D01*
X77720557Y-38030957D01*
X77577700Y-38102385D01*
X77006271Y-38102385D01*
D11*
X83630557Y-35153600D02*
G75*
G03X83630557Y-35153600I-382057J0D01*
G01*
X83516467Y-35179000D02*
G75*
G03X83516467Y-35179000I-255267J0D01*
G01*
X83346394Y-35204400D02*
G75*
G03X83346394Y-35204400I-85194J0D01*
G01*
D10*
X85532342Y-37865857D02*
X85032342Y-37865857D01*
X85032342Y-38651571D02*
X85032342Y-37151571D01*
X85746628Y-37151571D01*
X86246628Y-38223000D02*
X86960914Y-38223000D01*
X86103771Y-38651571D02*
X86603771Y-37151571D01*
X87103771Y-38651571D01*
X87603771Y-38651571D02*
X87603771Y-37151571D01*
X88460914Y-38651571D01*
X88460914Y-37151571D01*
X90246628Y-37080142D02*
X88960914Y-39008714D01*
X90746628Y-37151571D02*
X90746628Y-38365857D01*
X90818057Y-38508714D01*
X90889485Y-38580142D01*
X91032342Y-38651571D01*
X91318057Y-38651571D01*
X91460914Y-38580142D01*
X91532342Y-38508714D01*
X91603771Y-38365857D01*
X91603771Y-37151571D01*
X92246628Y-38580142D02*
X92460914Y-38651571D01*
X92818057Y-38651571D01*
X92960914Y-38580142D01*
X93032342Y-38508714D01*
X93103771Y-38365857D01*
X93103771Y-38223000D01*
X93032342Y-38080142D01*
X92960914Y-38008714D01*
X92818057Y-37937285D01*
X92532342Y-37865857D01*
X92389485Y-37794428D01*
X92318057Y-37723000D01*
X92246628Y-37580142D01*
X92246628Y-37437285D01*
X92318057Y-37294428D01*
X92389485Y-37223000D01*
X92532342Y-37151571D01*
X92889485Y-37151571D01*
X93103771Y-37223000D01*
X94246628Y-37865857D02*
X94460914Y-37937285D01*
X94532342Y-38008714D01*
X94603771Y-38151571D01*
X94603771Y-38365857D01*
X94532342Y-38508714D01*
X94460914Y-38580142D01*
X94318057Y-38651571D01*
X93746628Y-38651571D01*
X93746628Y-37151571D01*
X94246628Y-37151571D01*
X94389485Y-37223000D01*
X94460914Y-37294428D01*
X94532342Y-37437285D01*
X94532342Y-37580142D01*
X94460914Y-37723000D01*
X94389485Y-37794428D01*
X94246628Y-37865857D01*
X93746628Y-37865857D01*
X96389485Y-38651571D02*
X96389485Y-37151571D01*
X96960914Y-37151571D01*
X97103771Y-37223000D01*
X97175200Y-37294428D01*
X97246628Y-37437285D01*
X97246628Y-37651571D01*
X97175200Y-37794428D01*
X97103771Y-37865857D01*
X96960914Y-37937285D01*
X96389485Y-37937285D01*
X98103771Y-38651571D02*
X97960914Y-38580142D01*
X97889485Y-38508714D01*
X97818057Y-38365857D01*
X97818057Y-37937285D01*
X97889485Y-37794428D01*
X97960914Y-37723000D01*
X98103771Y-37651571D01*
X98318057Y-37651571D01*
X98460914Y-37723000D01*
X98532342Y-37794428D01*
X98603771Y-37937285D01*
X98603771Y-38365857D01*
X98532342Y-38508714D01*
X98460914Y-38580142D01*
X98318057Y-38651571D01*
X98103771Y-38651571D01*
X99103771Y-37651571D02*
X99389485Y-38651571D01*
X99675200Y-37937285D01*
X99960914Y-38651571D01*
X100246628Y-37651571D01*
X101389485Y-38580142D02*
X101246628Y-38651571D01*
X100960914Y-38651571D01*
X100818057Y-38580142D01*
X100746628Y-38437285D01*
X100746628Y-37865857D01*
X100818057Y-37723000D01*
X100960914Y-37651571D01*
X101246628Y-37651571D01*
X101389485Y-37723000D01*
X101460914Y-37865857D01*
X101460914Y-38008714D01*
X100746628Y-38151571D01*
X102103771Y-38651571D02*
X102103771Y-37651571D01*
X102103771Y-37937285D02*
X102175200Y-37794428D01*
X102246628Y-37723000D01*
X102389485Y-37651571D01*
X102532342Y-37651571D01*
D11*
X64973200Y-58470800D02*
G75*
G03X64973200Y-58470800I-50800J0D01*
G01*
X65151000Y-58470800D02*
G75*
G03X65151000Y-58470800I-228600J0D01*
G01*
X65278840Y-58470800D02*
G75*
G03X65278840Y-58470800I-384373J0D01*
G01*
X66014600Y-41910000D02*
X62865000Y-41910000D01*
X65963800Y-37896800D02*
X62839600Y-37896800D01*
D10*
X35166666Y-65969047D02*
X35166666Y-64269047D01*
X35166666Y-65078571D02*
X36138095Y-65078571D01*
X36138095Y-65969047D02*
X36138095Y-64269047D01*
X36947619Y-65969047D02*
X36947619Y-64269047D01*
X37595238Y-64269047D01*
X37757142Y-64350000D01*
X37838095Y-64430952D01*
X37919047Y-64592857D01*
X37919047Y-64835714D01*
X37838095Y-64997619D01*
X37757142Y-65078571D01*
X37595238Y-65159523D01*
X36947619Y-65159523D01*
X39942857Y-65969047D02*
X39942857Y-64269047D01*
X40347619Y-64269047D01*
X40590476Y-64350000D01*
X40752380Y-64511904D01*
X40833333Y-64673809D01*
X40914285Y-64997619D01*
X40914285Y-65240476D01*
X40833333Y-65564285D01*
X40752380Y-65726190D01*
X40590476Y-65888095D01*
X40347619Y-65969047D01*
X39942857Y-65969047D01*
X42452380Y-65969047D02*
X41642857Y-65969047D01*
X41642857Y-64269047D01*
X42857142Y-64269047D02*
X43909523Y-64269047D01*
X43342857Y-64916666D01*
X43585714Y-64916666D01*
X43747619Y-64997619D01*
X43828571Y-65078571D01*
X43909523Y-65240476D01*
X43909523Y-65645238D01*
X43828571Y-65807142D01*
X43747619Y-65888095D01*
X43585714Y-65969047D01*
X43099999Y-65969047D01*
X42938095Y-65888095D01*
X42857142Y-65807142D01*
X44880952Y-64997619D02*
X44719047Y-64916666D01*
X44638095Y-64835714D01*
X44557142Y-64673809D01*
X44557142Y-64592857D01*
X44638095Y-64430952D01*
X44719047Y-64350000D01*
X44880952Y-64269047D01*
X45204761Y-64269047D01*
X45366666Y-64350000D01*
X45447619Y-64430952D01*
X45528571Y-64592857D01*
X45528571Y-64673809D01*
X45447619Y-64835714D01*
X45366666Y-64916666D01*
X45204761Y-64997619D01*
X44880952Y-64997619D01*
X44719047Y-65078571D01*
X44638095Y-65159523D01*
X44557142Y-65321428D01*
X44557142Y-65645238D01*
X44638095Y-65807142D01*
X44719047Y-65888095D01*
X44880952Y-65969047D01*
X45204761Y-65969047D01*
X45366666Y-65888095D01*
X45447619Y-65807142D01*
X45528571Y-65645238D01*
X45528571Y-65321428D01*
X45447619Y-65159523D01*
X45366666Y-65078571D01*
X45204761Y-64997619D01*
X46580952Y-64269047D02*
X46742857Y-64269047D01*
X46904761Y-64350000D01*
X46985714Y-64430952D01*
X47066666Y-64592857D01*
X47147619Y-64916666D01*
X47147619Y-65321428D01*
X47066666Y-65645238D01*
X46985714Y-65807142D01*
X46904761Y-65888095D01*
X46742857Y-65969047D01*
X46580952Y-65969047D01*
X46419047Y-65888095D01*
X46338095Y-65807142D01*
X46257142Y-65645238D01*
X46176190Y-65321428D01*
X46176190Y-64916666D01*
X46257142Y-64592857D01*
X46338095Y-64430952D01*
X46419047Y-64350000D01*
X46580952Y-64269047D01*
X50061904Y-64350000D02*
X49899999Y-64269047D01*
X49657142Y-64269047D01*
X49414285Y-64350000D01*
X49252380Y-64511904D01*
X49171428Y-64673809D01*
X49090476Y-64997619D01*
X49090476Y-65240476D01*
X49171428Y-65564285D01*
X49252380Y-65726190D01*
X49414285Y-65888095D01*
X49657142Y-65969047D01*
X49819047Y-65969047D01*
X50061904Y-65888095D01*
X50142857Y-65807142D01*
X50142857Y-65240476D01*
X49819047Y-65240476D01*
X51114285Y-64997619D02*
X50952380Y-64916666D01*
X50871428Y-64835714D01*
X50790476Y-64673809D01*
X50790476Y-64592857D01*
X50871428Y-64430952D01*
X50952380Y-64350000D01*
X51114285Y-64269047D01*
X51438095Y-64269047D01*
X51599999Y-64350000D01*
X51680952Y-64430952D01*
X51761904Y-64592857D01*
X51761904Y-64673809D01*
X51680952Y-64835714D01*
X51599999Y-64916666D01*
X51438095Y-64997619D01*
X51114285Y-64997619D01*
X50952380Y-65078571D01*
X50871428Y-65159523D01*
X50790476Y-65321428D01*
X50790476Y-65645238D01*
X50871428Y-65807142D01*
X50952380Y-65888095D01*
X51114285Y-65969047D01*
X51438095Y-65969047D01*
X51599999Y-65888095D01*
X51680952Y-65807142D01*
X51761904Y-65645238D01*
X51761904Y-65321428D01*
X51680952Y-65159523D01*
X51599999Y-65078571D01*
X51438095Y-64997619D01*
X54352380Y-65078571D02*
X53785714Y-65078571D01*
X53785714Y-65969047D02*
X53785714Y-64269047D01*
X54595238Y-64269047D01*
X55971428Y-65969047D02*
X55971428Y-65078571D01*
X55890476Y-64916666D01*
X55728571Y-64835714D01*
X55404761Y-64835714D01*
X55242857Y-64916666D01*
X55971428Y-65888095D02*
X55809523Y-65969047D01*
X55404761Y-65969047D01*
X55242857Y-65888095D01*
X55161904Y-65726190D01*
X55161904Y-65564285D01*
X55242857Y-65402380D01*
X55404761Y-65321428D01*
X55809523Y-65321428D01*
X55971428Y-65240476D01*
X56780952Y-64835714D02*
X56780952Y-65969047D01*
X56780952Y-64997619D02*
X56861904Y-64916666D01*
X57023809Y-64835714D01*
X57266666Y-64835714D01*
X57428571Y-64916666D01*
X57509523Y-65078571D01*
X57509523Y-65969047D01*
X60585714Y-65807142D02*
X60504761Y-65888095D01*
X60261904Y-65969047D01*
X60100000Y-65969047D01*
X59857142Y-65888095D01*
X59695238Y-65726190D01*
X59614285Y-65564285D01*
X59533333Y-65240476D01*
X59533333Y-64997619D01*
X59614285Y-64673809D01*
X59695238Y-64511904D01*
X59857142Y-64350000D01*
X60100000Y-64269047D01*
X60261904Y-64269047D01*
X60504761Y-64350000D01*
X60585714Y-64430952D01*
X61557142Y-65969047D02*
X61395238Y-65888095D01*
X61314285Y-65807142D01*
X61233333Y-65645238D01*
X61233333Y-65159523D01*
X61314285Y-64997619D01*
X61395238Y-64916666D01*
X61557142Y-64835714D01*
X61800000Y-64835714D01*
X61961904Y-64916666D01*
X62042857Y-64997619D01*
X62123809Y-65159523D01*
X62123809Y-65645238D01*
X62042857Y-65807142D01*
X61961904Y-65888095D01*
X61800000Y-65969047D01*
X61557142Y-65969047D01*
X62852380Y-64835714D02*
X62852380Y-65969047D01*
X62852380Y-64997619D02*
X62933333Y-64916666D01*
X63095238Y-64835714D01*
X63338095Y-64835714D01*
X63500000Y-64916666D01*
X63580952Y-65078571D01*
X63580952Y-65969047D01*
X64147619Y-64835714D02*
X64795238Y-64835714D01*
X64390476Y-64269047D02*
X64390476Y-65726190D01*
X64471428Y-65888095D01*
X64633333Y-65969047D01*
X64795238Y-65969047D01*
X65361904Y-65969047D02*
X65361904Y-64835714D01*
X65361904Y-65159523D02*
X65442857Y-64997619D01*
X65523809Y-64916666D01*
X65685714Y-64835714D01*
X65847619Y-64835714D01*
X66657142Y-65969047D02*
X66495238Y-65888095D01*
X66414285Y-65807142D01*
X66333333Y-65645238D01*
X66333333Y-65159523D01*
X66414285Y-64997619D01*
X66495238Y-64916666D01*
X66657142Y-64835714D01*
X66900000Y-64835714D01*
X67061904Y-64916666D01*
X67142857Y-64997619D01*
X67223809Y-65159523D01*
X67223809Y-65645238D01*
X67142857Y-65807142D01*
X67061904Y-65888095D01*
X66900000Y-65969047D01*
X66657142Y-65969047D01*
X68195238Y-65969047D02*
X68033333Y-65888095D01*
X67952380Y-65726190D01*
X67952380Y-64269047D01*
X69085714Y-65969047D02*
X68923809Y-65888095D01*
X68842857Y-65726190D01*
X68842857Y-64269047D01*
X70380952Y-65888095D02*
X70219047Y-65969047D01*
X69895238Y-65969047D01*
X69733333Y-65888095D01*
X69652380Y-65726190D01*
X69652380Y-65078571D01*
X69733333Y-64916666D01*
X69895238Y-64835714D01*
X70219047Y-64835714D01*
X70380952Y-64916666D01*
X70461904Y-65078571D01*
X70461904Y-65240476D01*
X69652380Y-65402380D01*
X71190476Y-65969047D02*
X71190476Y-64835714D01*
X71190476Y-65159523D02*
X71271428Y-64997619D01*
X71352380Y-64916666D01*
X71514285Y-64835714D01*
X71676190Y-64835714D01*
D11*
X98100000Y-66000000D02*
X98100000Y-56000000D01*
X119900000Y-66000000D02*
X98100000Y-66000000D01*
X119900000Y-56000000D02*
X119900000Y-66000000D01*
X98100000Y-56000000D02*
X119900000Y-56000000D01*
D10*
X104428571Y-64807142D02*
X104642857Y-64878571D01*
X105000000Y-64878571D01*
X105142857Y-64807142D01*
X105214285Y-64735714D01*
X105285714Y-64592857D01*
X105285714Y-64450000D01*
X105214285Y-64307142D01*
X105142857Y-64235714D01*
X105000000Y-64164285D01*
X104714285Y-64092857D01*
X104571428Y-64021428D01*
X104500000Y-63950000D01*
X104428571Y-63807142D01*
X104428571Y-63664285D01*
X104500000Y-63521428D01*
X104571428Y-63450000D01*
X104714285Y-63378571D01*
X105071428Y-63378571D01*
X105285714Y-63450000D01*
X106500000Y-64807142D02*
X106357142Y-64878571D01*
X106071428Y-64878571D01*
X105928571Y-64807142D01*
X105857142Y-64664285D01*
X105857142Y-64092857D01*
X105928571Y-63950000D01*
X106071428Y-63878571D01*
X106357142Y-63878571D01*
X106500000Y-63950000D01*
X106571428Y-64092857D01*
X106571428Y-64235714D01*
X105857142Y-64378571D01*
X107214285Y-64878571D02*
X107214285Y-63878571D01*
X107214285Y-64164285D02*
X107285714Y-64021428D01*
X107357142Y-63950000D01*
X107500000Y-63878571D01*
X107642857Y-63878571D01*
X108142857Y-64878571D02*
X108142857Y-63878571D01*
X108142857Y-63378571D02*
X108071428Y-63450000D01*
X108142857Y-63521428D01*
X108214285Y-63450000D01*
X108142857Y-63378571D01*
X108142857Y-63521428D01*
X109500000Y-64878571D02*
X109500000Y-64092857D01*
X109428571Y-63950000D01*
X109285714Y-63878571D01*
X109000000Y-63878571D01*
X108857142Y-63950000D01*
X109500000Y-64807142D02*
X109357142Y-64878571D01*
X109000000Y-64878571D01*
X108857142Y-64807142D01*
X108785714Y-64664285D01*
X108785714Y-64521428D01*
X108857142Y-64378571D01*
X109000000Y-64307142D01*
X109357142Y-64307142D01*
X109500000Y-64235714D01*
X110428571Y-64878571D02*
X110285714Y-64807142D01*
X110214285Y-64664285D01*
X110214285Y-63378571D01*
X112071428Y-64807142D02*
X112285714Y-64878571D01*
X112642857Y-64878571D01*
X112785714Y-64807142D01*
X112857142Y-64735714D01*
X112928571Y-64592857D01*
X112928571Y-64450000D01*
X112857142Y-64307142D01*
X112785714Y-64235714D01*
X112642857Y-64164285D01*
X112357142Y-64092857D01*
X112214285Y-64021428D01*
X112142857Y-63950000D01*
X112071428Y-63807142D01*
X112071428Y-63664285D01*
X112142857Y-63521428D01*
X112214285Y-63450000D01*
X112357142Y-63378571D01*
X112714285Y-63378571D01*
X112928571Y-63450000D01*
X113357142Y-63878571D02*
X113928571Y-63878571D01*
X113571428Y-63378571D02*
X113571428Y-64664285D01*
X113642857Y-64807142D01*
X113785714Y-64878571D01*
X113928571Y-64878571D01*
X115071428Y-64878571D02*
X115071428Y-64092857D01*
X115000000Y-63950000D01*
X114857142Y-63878571D01*
X114571428Y-63878571D01*
X114428571Y-63950000D01*
X115071428Y-64807142D02*
X114928571Y-64878571D01*
X114571428Y-64878571D01*
X114428571Y-64807142D01*
X114357142Y-64664285D01*
X114357142Y-64521428D01*
X114428571Y-64378571D01*
X114571428Y-64307142D01*
X114928571Y-64307142D01*
X115071428Y-64235714D01*
X115571428Y-63878571D02*
X116142857Y-63878571D01*
X115785714Y-63378571D02*
X115785714Y-64664285D01*
X115857142Y-64807142D01*
X116000000Y-64878571D01*
X116142857Y-64878571D01*
X117285714Y-63878571D02*
X117285714Y-64878571D01*
X116642857Y-63878571D02*
X116642857Y-64664285D01*
X116714285Y-64807142D01*
X116857142Y-64878571D01*
X117071428Y-64878571D01*
X117214285Y-64807142D01*
X117285714Y-64735714D01*
X117928571Y-64807142D02*
X118071428Y-64878571D01*
X118357142Y-64878571D01*
X118500000Y-64807142D01*
X118571428Y-64664285D01*
X118571428Y-64592857D01*
X118500000Y-64450000D01*
X118357142Y-64378571D01*
X118142857Y-64378571D01*
X118000000Y-64307142D01*
X117928571Y-64164285D01*
X117928571Y-64092857D01*
X118000000Y-63950000D01*
X118142857Y-63878571D01*
X118357142Y-63878571D01*
X118500000Y-63950000D01*
X104957142Y-60992857D02*
X104457142Y-60992857D01*
X104457142Y-61778571D02*
X104457142Y-60278571D01*
X105171428Y-60278571D01*
X106385714Y-61778571D02*
X106385714Y-60992857D01*
X106314285Y-60850000D01*
X106171428Y-60778571D01*
X105885714Y-60778571D01*
X105742857Y-60850000D01*
X106385714Y-61707142D02*
X106242857Y-61778571D01*
X105885714Y-61778571D01*
X105742857Y-61707142D01*
X105671428Y-61564285D01*
X105671428Y-61421428D01*
X105742857Y-61278571D01*
X105885714Y-61207142D01*
X106242857Y-61207142D01*
X106385714Y-61135714D01*
X107100000Y-60778571D02*
X107100000Y-61778571D01*
X107100000Y-60921428D02*
X107171428Y-60850000D01*
X107314285Y-60778571D01*
X107528571Y-60778571D01*
X107671428Y-60850000D01*
X107742857Y-60992857D01*
X107742857Y-61778571D01*
X109528571Y-61707142D02*
X109742857Y-61778571D01*
X110100000Y-61778571D01*
X110242857Y-61707142D01*
X110314285Y-61635714D01*
X110385714Y-61492857D01*
X110385714Y-61350000D01*
X110314285Y-61207142D01*
X110242857Y-61135714D01*
X110100000Y-61064285D01*
X109814285Y-60992857D01*
X109671428Y-60921428D01*
X109600000Y-60850000D01*
X109528571Y-60707142D01*
X109528571Y-60564285D01*
X109600000Y-60421428D01*
X109671428Y-60350000D01*
X109814285Y-60278571D01*
X110171428Y-60278571D01*
X110385714Y-60350000D01*
X111600000Y-61707142D02*
X111457142Y-61778571D01*
X111171428Y-61778571D01*
X111028571Y-61707142D01*
X110957142Y-61564285D01*
X110957142Y-60992857D01*
X111028571Y-60850000D01*
X111171428Y-60778571D01*
X111457142Y-60778571D01*
X111600000Y-60850000D01*
X111671428Y-60992857D01*
X111671428Y-61135714D01*
X110957142Y-61278571D01*
X112100000Y-60778571D02*
X112671428Y-60778571D01*
X112314285Y-60278571D02*
X112314285Y-61564285D01*
X112385714Y-61707142D01*
X112528571Y-61778571D01*
X112671428Y-61778571D01*
X112957142Y-60778571D02*
X113528571Y-60778571D01*
X113171428Y-60278571D02*
X113171428Y-61564285D01*
X113242857Y-61707142D01*
X113385714Y-61778571D01*
X113528571Y-61778571D01*
X114028571Y-61778571D02*
X114028571Y-60778571D01*
X114028571Y-60278571D02*
X113957142Y-60350000D01*
X114028571Y-60421428D01*
X114100000Y-60350000D01*
X114028571Y-60278571D01*
X114028571Y-60421428D01*
X114742857Y-60778571D02*
X114742857Y-61778571D01*
X114742857Y-60921428D02*
X114814285Y-60850000D01*
X114957142Y-60778571D01*
X115171428Y-60778571D01*
X115314285Y-60850000D01*
X115385714Y-60992857D01*
X115385714Y-61778571D01*
X116742857Y-60778571D02*
X116742857Y-61992857D01*
X116671428Y-62135714D01*
X116600000Y-62207142D01*
X116457142Y-62278571D01*
X116242857Y-62278571D01*
X116100000Y-62207142D01*
X116742857Y-61707142D02*
X116600000Y-61778571D01*
X116314285Y-61778571D01*
X116171428Y-61707142D01*
X116100000Y-61635714D01*
X116028571Y-61492857D01*
X116028571Y-61064285D01*
X116100000Y-60921428D01*
X116171428Y-60850000D01*
X116314285Y-60778571D01*
X116600000Y-60778571D01*
X116742857Y-60850000D01*
X104428571Y-58678571D02*
X104428571Y-57178571D01*
X105000000Y-57178571D01*
X105142857Y-57250000D01*
X105214285Y-57321428D01*
X105285714Y-57464285D01*
X105285714Y-57678571D01*
X105214285Y-57821428D01*
X105142857Y-57892857D01*
X105000000Y-57964285D01*
X104428571Y-57964285D01*
X106142857Y-58678571D02*
X106000000Y-58607142D01*
X105928571Y-58535714D01*
X105857142Y-58392857D01*
X105857142Y-57964285D01*
X105928571Y-57821428D01*
X106000000Y-57750000D01*
X106142857Y-57678571D01*
X106357142Y-57678571D01*
X106500000Y-57750000D01*
X106571428Y-57821428D01*
X106642857Y-57964285D01*
X106642857Y-58392857D01*
X106571428Y-58535714D01*
X106500000Y-58607142D01*
X106357142Y-58678571D01*
X106142857Y-58678571D01*
X107142857Y-57678571D02*
X107428571Y-58678571D01*
X107714285Y-57964285D01*
X108000000Y-58678571D01*
X108285714Y-57678571D01*
X109428571Y-58607142D02*
X109285714Y-58678571D01*
X109000000Y-58678571D01*
X108857142Y-58607142D01*
X108785714Y-58464285D01*
X108785714Y-57892857D01*
X108857142Y-57750000D01*
X109000000Y-57678571D01*
X109285714Y-57678571D01*
X109428571Y-57750000D01*
X109500000Y-57892857D01*
X109500000Y-58035714D01*
X108785714Y-58178571D01*
X110142857Y-58678571D02*
X110142857Y-57678571D01*
X110142857Y-57964285D02*
X110214285Y-57821428D01*
X110285714Y-57750000D01*
X110428571Y-57678571D01*
X110571428Y-57678571D01*
X112500000Y-57178571D02*
X112785714Y-57178571D01*
X112928571Y-57250000D01*
X113071428Y-57392857D01*
X113142857Y-57678571D01*
X113142857Y-58178571D01*
X113071428Y-58464285D01*
X112928571Y-58607142D01*
X112785714Y-58678571D01*
X112500000Y-58678571D01*
X112357142Y-58607142D01*
X112214285Y-58464285D01*
X112142857Y-58178571D01*
X112142857Y-57678571D01*
X112214285Y-57392857D01*
X112357142Y-57250000D01*
X112500000Y-57178571D01*
X113785714Y-58678571D02*
X113785714Y-57178571D01*
X114642857Y-58678571D02*
X114000000Y-57821428D01*
X114642857Y-57178571D02*
X113785714Y-58035714D01*
D12*
G04 #@! TO.C,R12*
X101958578Y-48010000D02*
X101441422Y-48010000D01*
X101958578Y-46590000D02*
X101441422Y-46590000D01*
G04 #@! TO.C,C1*
X72121136Y-61066000D02*
X73325264Y-61066000D01*
X72121136Y-62886000D02*
X73325264Y-62886000D01*
G04 #@! TO.C,C2*
X56165000Y-60778922D02*
X56165000Y-61296078D01*
X57585000Y-60778922D02*
X57585000Y-61296078D01*
G04 #@! TO.C,C3*
X56165000Y-55978922D02*
X56165000Y-56496078D01*
X57585000Y-55978922D02*
X57585000Y-56496078D01*
G04 #@! TO.C,C4*
X56165000Y-51178922D02*
X56165000Y-51696078D01*
X57585000Y-51178922D02*
X57585000Y-51696078D01*
G04 #@! TO.C,C5*
X51585000Y-60778922D02*
X51585000Y-61296078D01*
X50165000Y-60778922D02*
X50165000Y-61296078D01*
G04 #@! TO.C,C6*
X51585000Y-55978922D02*
X51585000Y-56496078D01*
X50165000Y-55978922D02*
X50165000Y-56496078D01*
G04 #@! TO.C,C7*
X51585000Y-51178922D02*
X51585000Y-51696078D01*
X50165000Y-51178922D02*
X50165000Y-51696078D01*
G04 #@! TO.C,C8*
X99347500Y-43078922D02*
X99347500Y-43596078D01*
X97927500Y-43078922D02*
X97927500Y-43596078D01*
G04 #@! TO.C,C9*
X99347500Y-47978922D02*
X99347500Y-48496078D01*
X97927500Y-47978922D02*
X97927500Y-48496078D01*
G04 #@! TO.C,C10*
X97927500Y-52778922D02*
X97927500Y-53296078D01*
X99347500Y-52778922D02*
X99347500Y-53296078D01*
G04 #@! TO.C,C11*
X105347500Y-43078922D02*
X105347500Y-43596078D01*
X103927500Y-43078922D02*
X103927500Y-43596078D01*
G04 #@! TO.C,C12*
X105347500Y-47978922D02*
X105347500Y-48496078D01*
X103927500Y-47978922D02*
X103927500Y-48496078D01*
G04 #@! TO.C,C13*
X103927500Y-52778922D02*
X103927500Y-53296078D01*
X105347500Y-52778922D02*
X105347500Y-53296078D01*
G04 #@! TO.C,C14*
X62425264Y-42867789D02*
X62942420Y-42867789D01*
X62425264Y-44287789D02*
X62942420Y-44287789D01*
G04 #@! TO.C,C15*
X66379920Y-42867789D02*
X65862764Y-42867789D01*
X66379920Y-44287789D02*
X65862764Y-44287789D01*
G04 #@! TO.C,C16*
X94360000Y-40240000D02*
X93160000Y-40240000D01*
X89840000Y-40240000D02*
X91040000Y-40240000D01*
X89840000Y-43695563D02*
X89840000Y-40240000D01*
X94360000Y-43695563D02*
X94360000Y-40240000D01*
X93295563Y-44760000D02*
X93160000Y-44760000D01*
X90904437Y-44760000D02*
X91040000Y-44760000D01*
X90904437Y-44760000D02*
X89840000Y-43695563D01*
X93295563Y-44760000D02*
X94360000Y-43695563D01*
X90540000Y-45500000D02*
X90540000Y-45000000D01*
X90290000Y-45250000D02*
X90790000Y-45250000D01*
G04 #@! TO.C,C17*
X91810000Y-49502064D02*
X91810000Y-48297936D01*
X89990000Y-49502064D02*
X89990000Y-48297936D01*
G04 #@! TO.C,C18*
X94510000Y-48596078D02*
X94510000Y-48078922D01*
X93090000Y-48596078D02*
X93090000Y-48078922D01*
G04 #@! TO.C,J1*
X44355000Y-55300000D02*
X41815000Y-55300000D01*
X44355000Y-55300000D02*
X44355000Y-52760000D01*
X44105000Y-55050000D02*
X34755000Y-55050000D01*
X44105000Y-34190000D02*
X44105000Y-55050000D01*
X34755000Y-34190000D02*
X44105000Y-34190000D01*
X34755000Y-55050000D02*
X34755000Y-34190000D01*
G04 #@! TO.C,J2*
X119945000Y-34250000D02*
X119945000Y-55110000D01*
X119945000Y-55110000D02*
X110595000Y-55110000D01*
X110595000Y-55110000D02*
X110595000Y-34250000D01*
X110595000Y-34250000D02*
X119945000Y-34250000D01*
X110345000Y-34000000D02*
X110345000Y-36540000D01*
X110345000Y-34000000D02*
X112885000Y-34000000D01*
G04 #@! TO.C,J3*
X79679800Y-33874400D02*
X79679800Y-36534400D01*
X79679800Y-33874400D02*
X69459800Y-33874400D01*
X69459800Y-33874400D02*
X69459800Y-36534400D01*
X79679800Y-36534400D02*
X69459800Y-36534400D01*
X82279800Y-36534400D02*
X80949800Y-36534400D01*
X82279800Y-35204400D02*
X82279800Y-36534400D01*
G04 #@! TO.C,JP1*
X91262200Y-33874400D02*
X91262200Y-36534400D01*
X91262200Y-33874400D02*
X86122200Y-33874400D01*
X86122200Y-33874400D02*
X86122200Y-36534400D01*
X91262200Y-36534400D02*
X86122200Y-36534400D01*
X93862200Y-36534400D02*
X92532200Y-36534400D01*
X93862200Y-35204400D02*
X93862200Y-36534400D01*
G04 #@! TO.C,R1*
X80415200Y-49091322D02*
X80415200Y-49608478D01*
X78995200Y-49091322D02*
X78995200Y-49608478D01*
G04 #@! TO.C,R2*
X53616422Y-60810000D02*
X54133578Y-60810000D01*
X53616422Y-59390000D02*
X54133578Y-59390000D01*
G04 #@! TO.C,R3*
X53616422Y-54590000D02*
X54133578Y-54590000D01*
X53616422Y-56010000D02*
X54133578Y-56010000D01*
G04 #@! TO.C,R4*
X53616422Y-49790000D02*
X54133578Y-49790000D01*
X53616422Y-51210000D02*
X54133578Y-51210000D01*
G04 #@! TO.C,R5*
X47616422Y-59390000D02*
X48133578Y-59390000D01*
X47616422Y-60810000D02*
X48133578Y-60810000D01*
G04 #@! TO.C,R6*
X47616422Y-54590000D02*
X48133578Y-54590000D01*
X47616422Y-56010000D02*
X48133578Y-56010000D01*
G04 #@! TO.C,R7*
X47553922Y-51210000D02*
X48071078Y-51210000D01*
X47553922Y-49790000D02*
X48071078Y-49790000D01*
G04 #@! TO.C,R8*
X41690000Y-59658578D02*
X41690000Y-59141422D01*
X43110000Y-59658578D02*
X43110000Y-59141422D01*
G04 #@! TO.C,R9*
X39290000Y-59658578D02*
X39290000Y-59141422D01*
X40710000Y-59658578D02*
X40710000Y-59141422D01*
G04 #@! TO.C,R10*
X38310000Y-59658578D02*
X38310000Y-59141422D01*
X36890000Y-59658578D02*
X36890000Y-59141422D01*
G04 #@! TO.C,R11*
X101896078Y-43110000D02*
X101378922Y-43110000D01*
X101896078Y-41690000D02*
X101378922Y-41690000D01*
G04 #@! TO.C,R13*
X101896078Y-52810000D02*
X101378922Y-52810000D01*
X101896078Y-51390000D02*
X101378922Y-51390000D01*
G04 #@! TO.C,R14*
X107896078Y-41690000D02*
X107378922Y-41690000D01*
X107896078Y-43110000D02*
X107378922Y-43110000D01*
G04 #@! TO.C,R15*
X107896078Y-46590000D02*
X107378922Y-46590000D01*
X107896078Y-48010000D02*
X107378922Y-48010000D01*
G04 #@! TO.C,R16*
X107896078Y-51390000D02*
X107378922Y-51390000D01*
X107896078Y-52810000D02*
X107378922Y-52810000D01*
G04 #@! TO.C,R17*
X107341422Y-39910000D02*
X107858578Y-39910000D01*
X107341422Y-38490000D02*
X107858578Y-38490000D01*
G04 #@! TO.C,R18*
X107341422Y-36490000D02*
X107858578Y-36490000D01*
X107341422Y-37910000D02*
X107858578Y-37910000D01*
G04 #@! TO.C,R19*
X107341422Y-35910000D02*
X107858578Y-35910000D01*
X107341422Y-34490000D02*
X107858578Y-34490000D01*
G04 #@! TO.C,R20*
X60400000Y-57233078D02*
X60400000Y-56715922D01*
X58980000Y-57233078D02*
X58980000Y-56715922D01*
G04 #@! TO.C,R21*
X58944942Y-51823511D02*
X58944942Y-52340667D01*
X60364942Y-51823511D02*
X60364942Y-52340667D01*
G04 #@! TO.C,R22*
X84021078Y-51010000D02*
X83503922Y-51010000D01*
X84021078Y-49590000D02*
X83503922Y-49590000D01*
G04 #@! TO.C,R23*
X89940425Y-56476583D02*
X89423269Y-56476583D01*
X89940425Y-57896583D02*
X89423269Y-57896583D01*
G04 #@! TO.C,R24*
X93477925Y-59296583D02*
X92960769Y-59296583D01*
X93477925Y-57876583D02*
X92960769Y-57876583D01*
G04 #@! TO.C,R25*
X89915425Y-59576583D02*
X89398269Y-59576583D01*
X89915425Y-60996583D02*
X89398269Y-60996583D01*
G04 #@! TO.C,R26*
X93515425Y-62396583D02*
X92998269Y-62396583D01*
X93515425Y-60976583D02*
X92998269Y-60976583D01*
G04 #@! TO.C,R27*
X89940425Y-62676583D02*
X89423269Y-62676583D01*
X89940425Y-64096583D02*
X89423269Y-64096583D01*
G04 #@! TO.C,R28*
X93515425Y-65496583D02*
X92998269Y-65496583D01*
X93515425Y-64076583D02*
X92998269Y-64076583D01*
G04 #@! TO.C,R29*
X87596078Y-49590000D02*
X87078922Y-49590000D01*
X87596078Y-51010000D02*
X87078922Y-51010000D01*
D13*
G04 #@! TO.C,U1*
X65335742Y-57986189D02*
X65910742Y-57986189D01*
X65335742Y-47636189D02*
X66010742Y-47636189D01*
X75685742Y-47636189D02*
X75010742Y-47636189D01*
X75685742Y-57986189D02*
X75010742Y-57986189D01*
X65335742Y-57986189D02*
X65335742Y-57311189D01*
X75685742Y-57986189D02*
X75685742Y-57311189D01*
X75685742Y-47636189D02*
X75685742Y-48311189D01*
X65335742Y-47636189D02*
X65335742Y-48311189D01*
X65910742Y-57986189D02*
X65910742Y-59261189D01*
D12*
G04 #@! TO.C,U2*
X88910000Y-42140000D02*
X87650000Y-42140000D01*
X82090000Y-42140000D02*
X83350000Y-42140000D01*
X88910000Y-45900000D02*
X88910000Y-42140000D01*
X82090000Y-48150000D02*
X82090000Y-42140000D01*
D13*
G04 #@! TO.C,J4*
X124100000Y-58900000D02*
X124100000Y-56700000D01*
X124100000Y-56700000D02*
X129100000Y-56700000D01*
X124100000Y-63300000D02*
X124100000Y-65500000D01*
X124100000Y-65500000D02*
X129100000Y-65500000D01*
X131100000Y-65500000D02*
X133100000Y-65500000D01*
X133100000Y-65500000D02*
X133100000Y-56700000D01*
X133100000Y-56700000D02*
X131200000Y-56700000D01*
D12*
G04 #@! TO.C,C19*
X62078800Y-54078878D02*
X62078800Y-53561722D01*
X63498800Y-54078878D02*
X63498800Y-53561722D01*
G04 #@! TO.C,C20*
X77192878Y-61291400D02*
X76675722Y-61291400D01*
X77192878Y-62711400D02*
X76675722Y-62711400D01*
G04 #@! TO.C,C21*
X80389800Y-52575722D02*
X80389800Y-53092878D01*
X78969800Y-52575722D02*
X78969800Y-53092878D01*
G04 #@! TO.C,C22*
X70030078Y-42876400D02*
X69512922Y-42876400D01*
X70030078Y-44296400D02*
X69512922Y-44296400D01*
G04 #@! TO.C,R12*
D13*
X101057142Y-46252380D02*
X100723809Y-45776190D01*
X100485714Y-46252380D02*
X100485714Y-45252380D01*
X100866666Y-45252380D01*
X100961904Y-45300000D01*
X101009523Y-45347619D01*
X101057142Y-45442857D01*
X101057142Y-45585714D01*
X101009523Y-45680952D01*
X100961904Y-45728571D01*
X100866666Y-45776190D01*
X100485714Y-45776190D01*
X102009523Y-46252380D02*
X101438095Y-46252380D01*
X101723809Y-46252380D02*
X101723809Y-45252380D01*
X101628571Y-45395238D01*
X101533333Y-45490476D01*
X101438095Y-45538095D01*
X102390476Y-45347619D02*
X102438095Y-45300000D01*
X102533333Y-45252380D01*
X102771428Y-45252380D01*
X102866666Y-45300000D01*
X102914285Y-45347619D01*
X102961904Y-45442857D01*
X102961904Y-45538095D01*
X102914285Y-45680952D01*
X102342857Y-46252380D01*
X102961904Y-46252380D01*
G04 #@! TO.C,M4*
X51690476Y-37152380D02*
X51690476Y-36152380D01*
X52023809Y-36866666D01*
X52357142Y-36152380D01*
X52357142Y-37152380D01*
X53261904Y-36485714D02*
X53261904Y-37152380D01*
X53023809Y-36104761D02*
X52785714Y-36819047D01*
X53404761Y-36819047D01*
G04 #@! TO.C,C1*
X72556533Y-60513142D02*
X72508914Y-60560761D01*
X72366057Y-60608380D01*
X72270819Y-60608380D01*
X72127961Y-60560761D01*
X72032723Y-60465523D01*
X71985104Y-60370285D01*
X71937485Y-60179809D01*
X71937485Y-60036952D01*
X71985104Y-59846476D01*
X72032723Y-59751238D01*
X72127961Y-59656000D01*
X72270819Y-59608380D01*
X72366057Y-59608380D01*
X72508914Y-59656000D01*
X72556533Y-59703619D01*
X73508914Y-60608380D02*
X72937485Y-60608380D01*
X73223200Y-60608380D02*
X73223200Y-59608380D01*
X73127961Y-59751238D01*
X73032723Y-59846476D01*
X72937485Y-59894095D01*
G04 #@! TO.C,C2*
X56708333Y-58957142D02*
X56660714Y-59004761D01*
X56517857Y-59052380D01*
X56422619Y-59052380D01*
X56279761Y-59004761D01*
X56184523Y-58909523D01*
X56136904Y-58814285D01*
X56089285Y-58623809D01*
X56089285Y-58480952D01*
X56136904Y-58290476D01*
X56184523Y-58195238D01*
X56279761Y-58100000D01*
X56422619Y-58052380D01*
X56517857Y-58052380D01*
X56660714Y-58100000D01*
X56708333Y-58147619D01*
X57089285Y-58147619D02*
X57136904Y-58100000D01*
X57232142Y-58052380D01*
X57470238Y-58052380D01*
X57565476Y-58100000D01*
X57613095Y-58147619D01*
X57660714Y-58242857D01*
X57660714Y-58338095D01*
X57613095Y-58480952D01*
X57041666Y-59052380D01*
X57660714Y-59052380D01*
G04 #@! TO.C,C3*
X56708333Y-54157142D02*
X56660714Y-54204761D01*
X56517857Y-54252380D01*
X56422619Y-54252380D01*
X56279761Y-54204761D01*
X56184523Y-54109523D01*
X56136904Y-54014285D01*
X56089285Y-53823809D01*
X56089285Y-53680952D01*
X56136904Y-53490476D01*
X56184523Y-53395238D01*
X56279761Y-53300000D01*
X56422619Y-53252380D01*
X56517857Y-53252380D01*
X56660714Y-53300000D01*
X56708333Y-53347619D01*
X57041666Y-53252380D02*
X57660714Y-53252380D01*
X57327380Y-53633333D01*
X57470238Y-53633333D01*
X57565476Y-53680952D01*
X57613095Y-53728571D01*
X57660714Y-53823809D01*
X57660714Y-54061904D01*
X57613095Y-54157142D01*
X57565476Y-54204761D01*
X57470238Y-54252380D01*
X57184523Y-54252380D01*
X57089285Y-54204761D01*
X57041666Y-54157142D01*
G04 #@! TO.C,C4*
X56708333Y-49357142D02*
X56660714Y-49404761D01*
X56517857Y-49452380D01*
X56422619Y-49452380D01*
X56279761Y-49404761D01*
X56184523Y-49309523D01*
X56136904Y-49214285D01*
X56089285Y-49023809D01*
X56089285Y-48880952D01*
X56136904Y-48690476D01*
X56184523Y-48595238D01*
X56279761Y-48500000D01*
X56422619Y-48452380D01*
X56517857Y-48452380D01*
X56660714Y-48500000D01*
X56708333Y-48547619D01*
X57565476Y-48785714D02*
X57565476Y-49452380D01*
X57327380Y-48404761D02*
X57089285Y-49119047D01*
X57708333Y-49119047D01*
G04 #@! TO.C,C5*
X50708333Y-58957142D02*
X50660714Y-59004761D01*
X50517857Y-59052380D01*
X50422619Y-59052380D01*
X50279761Y-59004761D01*
X50184523Y-58909523D01*
X50136904Y-58814285D01*
X50089285Y-58623809D01*
X50089285Y-58480952D01*
X50136904Y-58290476D01*
X50184523Y-58195238D01*
X50279761Y-58100000D01*
X50422619Y-58052380D01*
X50517857Y-58052380D01*
X50660714Y-58100000D01*
X50708333Y-58147619D01*
X51613095Y-58052380D02*
X51136904Y-58052380D01*
X51089285Y-58528571D01*
X51136904Y-58480952D01*
X51232142Y-58433333D01*
X51470238Y-58433333D01*
X51565476Y-58480952D01*
X51613095Y-58528571D01*
X51660714Y-58623809D01*
X51660714Y-58861904D01*
X51613095Y-58957142D01*
X51565476Y-59004761D01*
X51470238Y-59052380D01*
X51232142Y-59052380D01*
X51136904Y-59004761D01*
X51089285Y-58957142D01*
G04 #@! TO.C,C6*
X50708333Y-54157142D02*
X50660714Y-54204761D01*
X50517857Y-54252380D01*
X50422619Y-54252380D01*
X50279761Y-54204761D01*
X50184523Y-54109523D01*
X50136904Y-54014285D01*
X50089285Y-53823809D01*
X50089285Y-53680952D01*
X50136904Y-53490476D01*
X50184523Y-53395238D01*
X50279761Y-53300000D01*
X50422619Y-53252380D01*
X50517857Y-53252380D01*
X50660714Y-53300000D01*
X50708333Y-53347619D01*
X51565476Y-53252380D02*
X51375000Y-53252380D01*
X51279761Y-53300000D01*
X51232142Y-53347619D01*
X51136904Y-53490476D01*
X51089285Y-53680952D01*
X51089285Y-54061904D01*
X51136904Y-54157142D01*
X51184523Y-54204761D01*
X51279761Y-54252380D01*
X51470238Y-54252380D01*
X51565476Y-54204761D01*
X51613095Y-54157142D01*
X51660714Y-54061904D01*
X51660714Y-53823809D01*
X51613095Y-53728571D01*
X51565476Y-53680952D01*
X51470238Y-53633333D01*
X51279761Y-53633333D01*
X51184523Y-53680952D01*
X51136904Y-53728571D01*
X51089285Y-53823809D01*
G04 #@! TO.C,C7*
X50708333Y-49357142D02*
X50660714Y-49404761D01*
X50517857Y-49452380D01*
X50422619Y-49452380D01*
X50279761Y-49404761D01*
X50184523Y-49309523D01*
X50136904Y-49214285D01*
X50089285Y-49023809D01*
X50089285Y-48880952D01*
X50136904Y-48690476D01*
X50184523Y-48595238D01*
X50279761Y-48500000D01*
X50422619Y-48452380D01*
X50517857Y-48452380D01*
X50660714Y-48500000D01*
X50708333Y-48547619D01*
X51041666Y-48452380D02*
X51708333Y-48452380D01*
X51279761Y-49452380D01*
G04 #@! TO.C,C8*
X98470833Y-41257142D02*
X98423214Y-41304761D01*
X98280357Y-41352380D01*
X98185119Y-41352380D01*
X98042261Y-41304761D01*
X97947023Y-41209523D01*
X97899404Y-41114285D01*
X97851785Y-40923809D01*
X97851785Y-40780952D01*
X97899404Y-40590476D01*
X97947023Y-40495238D01*
X98042261Y-40400000D01*
X98185119Y-40352380D01*
X98280357Y-40352380D01*
X98423214Y-40400000D01*
X98470833Y-40447619D01*
X99042261Y-40780952D02*
X98947023Y-40733333D01*
X98899404Y-40685714D01*
X98851785Y-40590476D01*
X98851785Y-40542857D01*
X98899404Y-40447619D01*
X98947023Y-40400000D01*
X99042261Y-40352380D01*
X99232738Y-40352380D01*
X99327976Y-40400000D01*
X99375595Y-40447619D01*
X99423214Y-40542857D01*
X99423214Y-40590476D01*
X99375595Y-40685714D01*
X99327976Y-40733333D01*
X99232738Y-40780952D01*
X99042261Y-40780952D01*
X98947023Y-40828571D01*
X98899404Y-40876190D01*
X98851785Y-40971428D01*
X98851785Y-41161904D01*
X98899404Y-41257142D01*
X98947023Y-41304761D01*
X99042261Y-41352380D01*
X99232738Y-41352380D01*
X99327976Y-41304761D01*
X99375595Y-41257142D01*
X99423214Y-41161904D01*
X99423214Y-40971428D01*
X99375595Y-40876190D01*
X99327976Y-40828571D01*
X99232738Y-40780952D01*
G04 #@! TO.C,C9*
X98470833Y-46157142D02*
X98423214Y-46204761D01*
X98280357Y-46252380D01*
X98185119Y-46252380D01*
X98042261Y-46204761D01*
X97947023Y-46109523D01*
X97899404Y-46014285D01*
X97851785Y-45823809D01*
X97851785Y-45680952D01*
X97899404Y-45490476D01*
X97947023Y-45395238D01*
X98042261Y-45300000D01*
X98185119Y-45252380D01*
X98280357Y-45252380D01*
X98423214Y-45300000D01*
X98470833Y-45347619D01*
X98947023Y-46252380D02*
X99137500Y-46252380D01*
X99232738Y-46204761D01*
X99280357Y-46157142D01*
X99375595Y-46014285D01*
X99423214Y-45823809D01*
X99423214Y-45442857D01*
X99375595Y-45347619D01*
X99327976Y-45300000D01*
X99232738Y-45252380D01*
X99042261Y-45252380D01*
X98947023Y-45300000D01*
X98899404Y-45347619D01*
X98851785Y-45442857D01*
X98851785Y-45680952D01*
X98899404Y-45776190D01*
X98947023Y-45823809D01*
X99042261Y-45871428D01*
X99232738Y-45871428D01*
X99327976Y-45823809D01*
X99375595Y-45776190D01*
X99423214Y-45680952D01*
G04 #@! TO.C,C10*
X97994642Y-50957142D02*
X97947023Y-51004761D01*
X97804166Y-51052380D01*
X97708928Y-51052380D01*
X97566071Y-51004761D01*
X97470833Y-50909523D01*
X97423214Y-50814285D01*
X97375595Y-50623809D01*
X97375595Y-50480952D01*
X97423214Y-50290476D01*
X97470833Y-50195238D01*
X97566071Y-50100000D01*
X97708928Y-50052380D01*
X97804166Y-50052380D01*
X97947023Y-50100000D01*
X97994642Y-50147619D01*
X98947023Y-51052380D02*
X98375595Y-51052380D01*
X98661309Y-51052380D02*
X98661309Y-50052380D01*
X98566071Y-50195238D01*
X98470833Y-50290476D01*
X98375595Y-50338095D01*
X99566071Y-50052380D02*
X99661309Y-50052380D01*
X99756547Y-50100000D01*
X99804166Y-50147619D01*
X99851785Y-50242857D01*
X99899404Y-50433333D01*
X99899404Y-50671428D01*
X99851785Y-50861904D01*
X99804166Y-50957142D01*
X99756547Y-51004761D01*
X99661309Y-51052380D01*
X99566071Y-51052380D01*
X99470833Y-51004761D01*
X99423214Y-50957142D01*
X99375595Y-50861904D01*
X99327976Y-50671428D01*
X99327976Y-50433333D01*
X99375595Y-50242857D01*
X99423214Y-50147619D01*
X99470833Y-50100000D01*
X99566071Y-50052380D01*
G04 #@! TO.C,C11*
X103994642Y-41257142D02*
X103947023Y-41304761D01*
X103804166Y-41352380D01*
X103708928Y-41352380D01*
X103566071Y-41304761D01*
X103470833Y-41209523D01*
X103423214Y-41114285D01*
X103375595Y-40923809D01*
X103375595Y-40780952D01*
X103423214Y-40590476D01*
X103470833Y-40495238D01*
X103566071Y-40400000D01*
X103708928Y-40352380D01*
X103804166Y-40352380D01*
X103947023Y-40400000D01*
X103994642Y-40447619D01*
X104947023Y-41352380D02*
X104375595Y-41352380D01*
X104661309Y-41352380D02*
X104661309Y-40352380D01*
X104566071Y-40495238D01*
X104470833Y-40590476D01*
X104375595Y-40638095D01*
X105899404Y-41352380D02*
X105327976Y-41352380D01*
X105613690Y-41352380D02*
X105613690Y-40352380D01*
X105518452Y-40495238D01*
X105423214Y-40590476D01*
X105327976Y-40638095D01*
G04 #@! TO.C,C12*
X103994642Y-46157142D02*
X103947023Y-46204761D01*
X103804166Y-46252380D01*
X103708928Y-46252380D01*
X103566071Y-46204761D01*
X103470833Y-46109523D01*
X103423214Y-46014285D01*
X103375595Y-45823809D01*
X103375595Y-45680952D01*
X103423214Y-45490476D01*
X103470833Y-45395238D01*
X103566071Y-45300000D01*
X103708928Y-45252380D01*
X103804166Y-45252380D01*
X103947023Y-45300000D01*
X103994642Y-45347619D01*
X104947023Y-46252380D02*
X104375595Y-46252380D01*
X104661309Y-46252380D02*
X104661309Y-45252380D01*
X104566071Y-45395238D01*
X104470833Y-45490476D01*
X104375595Y-45538095D01*
X105327976Y-45347619D02*
X105375595Y-45300000D01*
X105470833Y-45252380D01*
X105708928Y-45252380D01*
X105804166Y-45300000D01*
X105851785Y-45347619D01*
X105899404Y-45442857D01*
X105899404Y-45538095D01*
X105851785Y-45680952D01*
X105280357Y-46252380D01*
X105899404Y-46252380D01*
G04 #@! TO.C,C13*
X103994642Y-50957142D02*
X103947023Y-51004761D01*
X103804166Y-51052380D01*
X103708928Y-51052380D01*
X103566071Y-51004761D01*
X103470833Y-50909523D01*
X103423214Y-50814285D01*
X103375595Y-50623809D01*
X103375595Y-50480952D01*
X103423214Y-50290476D01*
X103470833Y-50195238D01*
X103566071Y-50100000D01*
X103708928Y-50052380D01*
X103804166Y-50052380D01*
X103947023Y-50100000D01*
X103994642Y-50147619D01*
X104947023Y-51052380D02*
X104375595Y-51052380D01*
X104661309Y-51052380D02*
X104661309Y-50052380D01*
X104566071Y-50195238D01*
X104470833Y-50290476D01*
X104375595Y-50338095D01*
X105280357Y-50052380D02*
X105899404Y-50052380D01*
X105566071Y-50433333D01*
X105708928Y-50433333D01*
X105804166Y-50480952D01*
X105851785Y-50528571D01*
X105899404Y-50623809D01*
X105899404Y-50861904D01*
X105851785Y-50957142D01*
X105804166Y-51004761D01*
X105708928Y-51052380D01*
X105423214Y-51052380D01*
X105327976Y-51004761D01*
X105280357Y-50957142D01*
G04 #@! TO.C,C14*
X58767742Y-43918142D02*
X58720123Y-43965761D01*
X58577266Y-44013380D01*
X58482028Y-44013380D01*
X58339171Y-43965761D01*
X58243933Y-43870523D01*
X58196314Y-43775285D01*
X58148695Y-43584809D01*
X58148695Y-43441952D01*
X58196314Y-43251476D01*
X58243933Y-43156238D01*
X58339171Y-43061000D01*
X58482028Y-43013380D01*
X58577266Y-43013380D01*
X58720123Y-43061000D01*
X58767742Y-43108619D01*
X59720123Y-44013380D02*
X59148695Y-44013380D01*
X59434409Y-44013380D02*
X59434409Y-43013380D01*
X59339171Y-43156238D01*
X59243933Y-43251476D01*
X59148695Y-43299095D01*
X60577266Y-43346714D02*
X60577266Y-44013380D01*
X60339171Y-42965761D02*
X60101076Y-43680047D01*
X60720123Y-43680047D01*
G04 #@! TO.C,C15*
X68572142Y-43968942D02*
X68524523Y-44016561D01*
X68381666Y-44064180D01*
X68286428Y-44064180D01*
X68143571Y-44016561D01*
X68048333Y-43921323D01*
X68000714Y-43826085D01*
X67953095Y-43635609D01*
X67953095Y-43492752D01*
X68000714Y-43302276D01*
X68048333Y-43207038D01*
X68143571Y-43111800D01*
X68286428Y-43064180D01*
X68381666Y-43064180D01*
X68524523Y-43111800D01*
X68572142Y-43159419D01*
X69524523Y-44064180D02*
X68953095Y-44064180D01*
X69238809Y-44064180D02*
X69238809Y-43064180D01*
X69143571Y-43207038D01*
X69048333Y-43302276D01*
X68953095Y-43349895D01*
X70429285Y-43064180D02*
X69953095Y-43064180D01*
X69905476Y-43540371D01*
X69953095Y-43492752D01*
X70048333Y-43445133D01*
X70286428Y-43445133D01*
X70381666Y-43492752D01*
X70429285Y-43540371D01*
X70476904Y-43635609D01*
X70476904Y-43873704D01*
X70429285Y-43968942D01*
X70381666Y-44016561D01*
X70286428Y-44064180D01*
X70048333Y-44064180D01*
X69953095Y-44016561D01*
X69905476Y-43968942D01*
G04 #@! TO.C,C16*
X95318342Y-42762442D02*
X95270723Y-42810061D01*
X95127866Y-42857680D01*
X95032628Y-42857680D01*
X94889771Y-42810061D01*
X94794533Y-42714823D01*
X94746914Y-42619585D01*
X94699295Y-42429109D01*
X94699295Y-42286252D01*
X94746914Y-42095776D01*
X94794533Y-42000538D01*
X94889771Y-41905300D01*
X95032628Y-41857680D01*
X95127866Y-41857680D01*
X95270723Y-41905300D01*
X95318342Y-41952919D01*
X96270723Y-42857680D02*
X95699295Y-42857680D01*
X95985009Y-42857680D02*
X95985009Y-41857680D01*
X95889771Y-42000538D01*
X95794533Y-42095776D01*
X95699295Y-42143395D01*
X97127866Y-41857680D02*
X96937390Y-41857680D01*
X96842152Y-41905300D01*
X96794533Y-41952919D01*
X96699295Y-42095776D01*
X96651676Y-42286252D01*
X96651676Y-42667204D01*
X96699295Y-42762442D01*
X96746914Y-42810061D01*
X96842152Y-42857680D01*
X97032628Y-42857680D01*
X97127866Y-42810061D01*
X97175485Y-42762442D01*
X97223104Y-42667204D01*
X97223104Y-42429109D01*
X97175485Y-42333871D01*
X97127866Y-42286252D01*
X97032628Y-42238633D01*
X96842152Y-42238633D01*
X96746914Y-42286252D01*
X96699295Y-42333871D01*
X96651676Y-42429109D01*
G04 #@! TO.C,C17*
X90357142Y-52457142D02*
X90309523Y-52504761D01*
X90166666Y-52552380D01*
X90071428Y-52552380D01*
X89928571Y-52504761D01*
X89833333Y-52409523D01*
X89785714Y-52314285D01*
X89738095Y-52123809D01*
X89738095Y-51980952D01*
X89785714Y-51790476D01*
X89833333Y-51695238D01*
X89928571Y-51600000D01*
X90071428Y-51552380D01*
X90166666Y-51552380D01*
X90309523Y-51600000D01*
X90357142Y-51647619D01*
X91309523Y-52552380D02*
X90738095Y-52552380D01*
X91023809Y-52552380D02*
X91023809Y-51552380D01*
X90928571Y-51695238D01*
X90833333Y-51790476D01*
X90738095Y-51838095D01*
X91642857Y-51552380D02*
X92309523Y-51552380D01*
X91880952Y-52552380D01*
G04 #@! TO.C,C18*
X93257142Y-51157142D02*
X93209523Y-51204761D01*
X93066666Y-51252380D01*
X92971428Y-51252380D01*
X92828571Y-51204761D01*
X92733333Y-51109523D01*
X92685714Y-51014285D01*
X92638095Y-50823809D01*
X92638095Y-50680952D01*
X92685714Y-50490476D01*
X92733333Y-50395238D01*
X92828571Y-50300000D01*
X92971428Y-50252380D01*
X93066666Y-50252380D01*
X93209523Y-50300000D01*
X93257142Y-50347619D01*
X94209523Y-51252380D02*
X93638095Y-51252380D01*
X93923809Y-51252380D02*
X93923809Y-50252380D01*
X93828571Y-50395238D01*
X93733333Y-50490476D01*
X93638095Y-50538095D01*
X94780952Y-50680952D02*
X94685714Y-50633333D01*
X94638095Y-50585714D01*
X94590476Y-50490476D01*
X94590476Y-50442857D01*
X94638095Y-50347619D01*
X94685714Y-50300000D01*
X94780952Y-50252380D01*
X94971428Y-50252380D01*
X95066666Y-50300000D01*
X95114285Y-50347619D01*
X95161904Y-50442857D01*
X95161904Y-50490476D01*
X95114285Y-50585714D01*
X95066666Y-50633333D01*
X94971428Y-50680952D01*
X94780952Y-50680952D01*
X94685714Y-50728571D01*
X94638095Y-50776190D01*
X94590476Y-50871428D01*
X94590476Y-51061904D01*
X94638095Y-51157142D01*
X94685714Y-51204761D01*
X94780952Y-51252380D01*
X94971428Y-51252380D01*
X95066666Y-51204761D01*
X95114285Y-51157142D01*
X95161904Y-51061904D01*
X95161904Y-50871428D01*
X95114285Y-50776190D01*
X95066666Y-50728571D01*
X94971428Y-50680952D01*
G04 #@! TO.C,D1*
X96112104Y-58338980D02*
X96112104Y-57338980D01*
X96350200Y-57338980D01*
X96493057Y-57386600D01*
X96588295Y-57481838D01*
X96635914Y-57577076D01*
X96683533Y-57767552D01*
X96683533Y-57910409D01*
X96635914Y-58100885D01*
X96588295Y-58196123D01*
X96493057Y-58291361D01*
X96350200Y-58338980D01*
X96112104Y-58338980D01*
X97635914Y-58338980D02*
X97064485Y-58338980D01*
X97350200Y-58338980D02*
X97350200Y-57338980D01*
X97254961Y-57481838D01*
X97159723Y-57577076D01*
X97064485Y-57624695D01*
G04 #@! TO.C,D2*
X96112104Y-61463180D02*
X96112104Y-60463180D01*
X96350200Y-60463180D01*
X96493057Y-60510800D01*
X96588295Y-60606038D01*
X96635914Y-60701276D01*
X96683533Y-60891752D01*
X96683533Y-61034609D01*
X96635914Y-61225085D01*
X96588295Y-61320323D01*
X96493057Y-61415561D01*
X96350200Y-61463180D01*
X96112104Y-61463180D01*
X97064485Y-60558419D02*
X97112104Y-60510800D01*
X97207342Y-60463180D01*
X97445438Y-60463180D01*
X97540676Y-60510800D01*
X97588295Y-60558419D01*
X97635914Y-60653657D01*
X97635914Y-60748895D01*
X97588295Y-60891752D01*
X97016866Y-61463180D01*
X97635914Y-61463180D01*
G04 #@! TO.C,D3*
X96137504Y-64485780D02*
X96137504Y-63485780D01*
X96375600Y-63485780D01*
X96518457Y-63533400D01*
X96613695Y-63628638D01*
X96661314Y-63723876D01*
X96708933Y-63914352D01*
X96708933Y-64057209D01*
X96661314Y-64247685D01*
X96613695Y-64342923D01*
X96518457Y-64438161D01*
X96375600Y-64485780D01*
X96137504Y-64485780D01*
X97042266Y-63485780D02*
X97661314Y-63485780D01*
X97327980Y-63866733D01*
X97470838Y-63866733D01*
X97566076Y-63914352D01*
X97613695Y-63961971D01*
X97661314Y-64057209D01*
X97661314Y-64295304D01*
X97613695Y-64390542D01*
X97566076Y-64438161D01*
X97470838Y-64485780D01*
X97185123Y-64485780D01*
X97089885Y-64438161D01*
X97042266Y-64390542D01*
G04 #@! TO.C,J1*
X44966666Y-43852380D02*
X44966666Y-44566666D01*
X44919047Y-44709523D01*
X44823809Y-44804761D01*
X44680952Y-44852380D01*
X44585714Y-44852380D01*
X45966666Y-44852380D02*
X45395238Y-44852380D01*
X45680952Y-44852380D02*
X45680952Y-43852380D01*
X45585714Y-43995238D01*
X45490476Y-44090476D01*
X45395238Y-44138095D01*
G04 #@! TO.C,J2*
X120966666Y-44152380D02*
X120966666Y-44866666D01*
X120919047Y-45009523D01*
X120823809Y-45104761D01*
X120680952Y-45152380D01*
X120585714Y-45152380D01*
X121395238Y-44247619D02*
X121442857Y-44200000D01*
X121538095Y-44152380D01*
X121776190Y-44152380D01*
X121871428Y-44200000D01*
X121919047Y-44247619D01*
X121966666Y-44342857D01*
X121966666Y-44438095D01*
X121919047Y-44580952D01*
X121347619Y-45152380D01*
X121966666Y-45152380D01*
G04 #@! TO.C,J3*
X67586266Y-34694880D02*
X67586266Y-35409166D01*
X67538647Y-35552023D01*
X67443409Y-35647261D01*
X67300552Y-35694880D01*
X67205314Y-35694880D01*
X67967219Y-34694880D02*
X68586266Y-34694880D01*
X68252933Y-35075833D01*
X68395790Y-35075833D01*
X68491028Y-35123452D01*
X68538647Y-35171071D01*
X68586266Y-35266309D01*
X68586266Y-35504404D01*
X68538647Y-35599642D01*
X68491028Y-35647261D01*
X68395790Y-35694880D01*
X68110076Y-35694880D01*
X68014838Y-35647261D01*
X67967219Y-35599642D01*
G04 #@! TO.C,JP1*
X94899266Y-34034480D02*
X94899266Y-34748766D01*
X94851647Y-34891623D01*
X94756409Y-34986861D01*
X94613552Y-35034480D01*
X94518314Y-35034480D01*
X95375457Y-35034480D02*
X95375457Y-34034480D01*
X95756409Y-34034480D01*
X95851647Y-34082100D01*
X95899266Y-34129719D01*
X95946885Y-34224957D01*
X95946885Y-34367814D01*
X95899266Y-34463052D01*
X95851647Y-34510671D01*
X95756409Y-34558290D01*
X95375457Y-34558290D01*
X96899266Y-35034480D02*
X96327838Y-35034480D01*
X96613552Y-35034480D02*
X96613552Y-34034480D01*
X96518314Y-34177338D01*
X96423076Y-34272576D01*
X96327838Y-34320195D01*
G04 #@! TO.C,R1*
X79614733Y-47391580D02*
X79281400Y-46915390D01*
X79043304Y-47391580D02*
X79043304Y-46391580D01*
X79424257Y-46391580D01*
X79519495Y-46439200D01*
X79567114Y-46486819D01*
X79614733Y-46582057D01*
X79614733Y-46724914D01*
X79567114Y-46820152D01*
X79519495Y-46867771D01*
X79424257Y-46915390D01*
X79043304Y-46915390D01*
X80567114Y-47391580D02*
X79995685Y-47391580D01*
X80281400Y-47391580D02*
X80281400Y-46391580D01*
X80186161Y-46534438D01*
X80090923Y-46629676D01*
X79995685Y-46677295D01*
G04 #@! TO.C,R2*
X53708333Y-58902380D02*
X53375000Y-58426190D01*
X53136904Y-58902380D02*
X53136904Y-57902380D01*
X53517857Y-57902380D01*
X53613095Y-57950000D01*
X53660714Y-57997619D01*
X53708333Y-58092857D01*
X53708333Y-58235714D01*
X53660714Y-58330952D01*
X53613095Y-58378571D01*
X53517857Y-58426190D01*
X53136904Y-58426190D01*
X54089285Y-57997619D02*
X54136904Y-57950000D01*
X54232142Y-57902380D01*
X54470238Y-57902380D01*
X54565476Y-57950000D01*
X54613095Y-57997619D01*
X54660714Y-58092857D01*
X54660714Y-58188095D01*
X54613095Y-58330952D01*
X54041666Y-58902380D01*
X54660714Y-58902380D01*
G04 #@! TO.C,R3*
X53708333Y-54102380D02*
X53375000Y-53626190D01*
X53136904Y-54102380D02*
X53136904Y-53102380D01*
X53517857Y-53102380D01*
X53613095Y-53150000D01*
X53660714Y-53197619D01*
X53708333Y-53292857D01*
X53708333Y-53435714D01*
X53660714Y-53530952D01*
X53613095Y-53578571D01*
X53517857Y-53626190D01*
X53136904Y-53626190D01*
X54041666Y-53102380D02*
X54660714Y-53102380D01*
X54327380Y-53483333D01*
X54470238Y-53483333D01*
X54565476Y-53530952D01*
X54613095Y-53578571D01*
X54660714Y-53673809D01*
X54660714Y-53911904D01*
X54613095Y-54007142D01*
X54565476Y-54054761D01*
X54470238Y-54102380D01*
X54184523Y-54102380D01*
X54089285Y-54054761D01*
X54041666Y-54007142D01*
G04 #@! TO.C,R4*
X53708333Y-49302380D02*
X53375000Y-48826190D01*
X53136904Y-49302380D02*
X53136904Y-48302380D01*
X53517857Y-48302380D01*
X53613095Y-48350000D01*
X53660714Y-48397619D01*
X53708333Y-48492857D01*
X53708333Y-48635714D01*
X53660714Y-48730952D01*
X53613095Y-48778571D01*
X53517857Y-48826190D01*
X53136904Y-48826190D01*
X54565476Y-48635714D02*
X54565476Y-49302380D01*
X54327380Y-48254761D02*
X54089285Y-48969047D01*
X54708333Y-48969047D01*
G04 #@! TO.C,R5*
X47708333Y-58902380D02*
X47375000Y-58426190D01*
X47136904Y-58902380D02*
X47136904Y-57902380D01*
X47517857Y-57902380D01*
X47613095Y-57950000D01*
X47660714Y-57997619D01*
X47708333Y-58092857D01*
X47708333Y-58235714D01*
X47660714Y-58330952D01*
X47613095Y-58378571D01*
X47517857Y-58426190D01*
X47136904Y-58426190D01*
X48613095Y-57902380D02*
X48136904Y-57902380D01*
X48089285Y-58378571D01*
X48136904Y-58330952D01*
X48232142Y-58283333D01*
X48470238Y-58283333D01*
X48565476Y-58330952D01*
X48613095Y-58378571D01*
X48660714Y-58473809D01*
X48660714Y-58711904D01*
X48613095Y-58807142D01*
X48565476Y-58854761D01*
X48470238Y-58902380D01*
X48232142Y-58902380D01*
X48136904Y-58854761D01*
X48089285Y-58807142D01*
G04 #@! TO.C,R6*
X47708333Y-54102380D02*
X47375000Y-53626190D01*
X47136904Y-54102380D02*
X47136904Y-53102380D01*
X47517857Y-53102380D01*
X47613095Y-53150000D01*
X47660714Y-53197619D01*
X47708333Y-53292857D01*
X47708333Y-53435714D01*
X47660714Y-53530952D01*
X47613095Y-53578571D01*
X47517857Y-53626190D01*
X47136904Y-53626190D01*
X48565476Y-53102380D02*
X48375000Y-53102380D01*
X48279761Y-53150000D01*
X48232142Y-53197619D01*
X48136904Y-53340476D01*
X48089285Y-53530952D01*
X48089285Y-53911904D01*
X48136904Y-54007142D01*
X48184523Y-54054761D01*
X48279761Y-54102380D01*
X48470238Y-54102380D01*
X48565476Y-54054761D01*
X48613095Y-54007142D01*
X48660714Y-53911904D01*
X48660714Y-53673809D01*
X48613095Y-53578571D01*
X48565476Y-53530952D01*
X48470238Y-53483333D01*
X48279761Y-53483333D01*
X48184523Y-53530952D01*
X48136904Y-53578571D01*
X48089285Y-53673809D01*
G04 #@! TO.C,R7*
X47645833Y-49302380D02*
X47312500Y-48826190D01*
X47074404Y-49302380D02*
X47074404Y-48302380D01*
X47455357Y-48302380D01*
X47550595Y-48350000D01*
X47598214Y-48397619D01*
X47645833Y-48492857D01*
X47645833Y-48635714D01*
X47598214Y-48730952D01*
X47550595Y-48778571D01*
X47455357Y-48826190D01*
X47074404Y-48826190D01*
X47979166Y-48302380D02*
X48645833Y-48302380D01*
X48217261Y-49302380D01*
G04 #@! TO.C,R8*
X42333333Y-57552380D02*
X42000000Y-57076190D01*
X41761904Y-57552380D02*
X41761904Y-56552380D01*
X42142857Y-56552380D01*
X42238095Y-56600000D01*
X42285714Y-56647619D01*
X42333333Y-56742857D01*
X42333333Y-56885714D01*
X42285714Y-56980952D01*
X42238095Y-57028571D01*
X42142857Y-57076190D01*
X41761904Y-57076190D01*
X42904761Y-56980952D02*
X42809523Y-56933333D01*
X42761904Y-56885714D01*
X42714285Y-56790476D01*
X42714285Y-56742857D01*
X42761904Y-56647619D01*
X42809523Y-56600000D01*
X42904761Y-56552380D01*
X43095238Y-56552380D01*
X43190476Y-56600000D01*
X43238095Y-56647619D01*
X43285714Y-56742857D01*
X43285714Y-56790476D01*
X43238095Y-56885714D01*
X43190476Y-56933333D01*
X43095238Y-56980952D01*
X42904761Y-56980952D01*
X42809523Y-57028571D01*
X42761904Y-57076190D01*
X42714285Y-57171428D01*
X42714285Y-57361904D01*
X42761904Y-57457142D01*
X42809523Y-57504761D01*
X42904761Y-57552380D01*
X43095238Y-57552380D01*
X43190476Y-57504761D01*
X43238095Y-57457142D01*
X43285714Y-57361904D01*
X43285714Y-57171428D01*
X43238095Y-57076190D01*
X43190476Y-57028571D01*
X43095238Y-56980952D01*
G04 #@! TO.C,R9*
X39833333Y-57452380D02*
X39500000Y-56976190D01*
X39261904Y-57452380D02*
X39261904Y-56452380D01*
X39642857Y-56452380D01*
X39738095Y-56500000D01*
X39785714Y-56547619D01*
X39833333Y-56642857D01*
X39833333Y-56785714D01*
X39785714Y-56880952D01*
X39738095Y-56928571D01*
X39642857Y-56976190D01*
X39261904Y-56976190D01*
X40309523Y-57452380D02*
X40500000Y-57452380D01*
X40595238Y-57404761D01*
X40642857Y-57357142D01*
X40738095Y-57214285D01*
X40785714Y-57023809D01*
X40785714Y-56642857D01*
X40738095Y-56547619D01*
X40690476Y-56500000D01*
X40595238Y-56452380D01*
X40404761Y-56452380D01*
X40309523Y-56500000D01*
X40261904Y-56547619D01*
X40214285Y-56642857D01*
X40214285Y-56880952D01*
X40261904Y-56976190D01*
X40309523Y-57023809D01*
X40404761Y-57071428D01*
X40595238Y-57071428D01*
X40690476Y-57023809D01*
X40738095Y-56976190D01*
X40785714Y-56880952D01*
G04 #@! TO.C,R10*
X36957142Y-57452380D02*
X36623809Y-56976190D01*
X36385714Y-57452380D02*
X36385714Y-56452380D01*
X36766666Y-56452380D01*
X36861904Y-56500000D01*
X36909523Y-56547619D01*
X36957142Y-56642857D01*
X36957142Y-56785714D01*
X36909523Y-56880952D01*
X36861904Y-56928571D01*
X36766666Y-56976190D01*
X36385714Y-56976190D01*
X37909523Y-57452380D02*
X37338095Y-57452380D01*
X37623809Y-57452380D02*
X37623809Y-56452380D01*
X37528571Y-56595238D01*
X37433333Y-56690476D01*
X37338095Y-56738095D01*
X38528571Y-56452380D02*
X38623809Y-56452380D01*
X38719047Y-56500000D01*
X38766666Y-56547619D01*
X38814285Y-56642857D01*
X38861904Y-56833333D01*
X38861904Y-57071428D01*
X38814285Y-57261904D01*
X38766666Y-57357142D01*
X38719047Y-57404761D01*
X38623809Y-57452380D01*
X38528571Y-57452380D01*
X38433333Y-57404761D01*
X38385714Y-57357142D01*
X38338095Y-57261904D01*
X38290476Y-57071428D01*
X38290476Y-56833333D01*
X38338095Y-56642857D01*
X38385714Y-56547619D01*
X38433333Y-56500000D01*
X38528571Y-56452380D01*
G04 #@! TO.C,R11*
X100994642Y-41352380D02*
X100661309Y-40876190D01*
X100423214Y-41352380D02*
X100423214Y-40352380D01*
X100804166Y-40352380D01*
X100899404Y-40400000D01*
X100947023Y-40447619D01*
X100994642Y-40542857D01*
X100994642Y-40685714D01*
X100947023Y-40780952D01*
X100899404Y-40828571D01*
X100804166Y-40876190D01*
X100423214Y-40876190D01*
X101947023Y-41352380D02*
X101375595Y-41352380D01*
X101661309Y-41352380D02*
X101661309Y-40352380D01*
X101566071Y-40495238D01*
X101470833Y-40590476D01*
X101375595Y-40638095D01*
X102899404Y-41352380D02*
X102327976Y-41352380D01*
X102613690Y-41352380D02*
X102613690Y-40352380D01*
X102518452Y-40495238D01*
X102423214Y-40590476D01*
X102327976Y-40638095D01*
G04 #@! TO.C,R13*
X100994642Y-51052380D02*
X100661309Y-50576190D01*
X100423214Y-51052380D02*
X100423214Y-50052380D01*
X100804166Y-50052380D01*
X100899404Y-50100000D01*
X100947023Y-50147619D01*
X100994642Y-50242857D01*
X100994642Y-50385714D01*
X100947023Y-50480952D01*
X100899404Y-50528571D01*
X100804166Y-50576190D01*
X100423214Y-50576190D01*
X101947023Y-51052380D02*
X101375595Y-51052380D01*
X101661309Y-51052380D02*
X101661309Y-50052380D01*
X101566071Y-50195238D01*
X101470833Y-50290476D01*
X101375595Y-50338095D01*
X102280357Y-50052380D02*
X102899404Y-50052380D01*
X102566071Y-50433333D01*
X102708928Y-50433333D01*
X102804166Y-50480952D01*
X102851785Y-50528571D01*
X102899404Y-50623809D01*
X102899404Y-50861904D01*
X102851785Y-50957142D01*
X102804166Y-51004761D01*
X102708928Y-51052380D01*
X102423214Y-51052380D01*
X102327976Y-51004761D01*
X102280357Y-50957142D01*
G04 #@! TO.C,R14*
X106994642Y-41352380D02*
X106661309Y-40876190D01*
X106423214Y-41352380D02*
X106423214Y-40352380D01*
X106804166Y-40352380D01*
X106899404Y-40400000D01*
X106947023Y-40447619D01*
X106994642Y-40542857D01*
X106994642Y-40685714D01*
X106947023Y-40780952D01*
X106899404Y-40828571D01*
X106804166Y-40876190D01*
X106423214Y-40876190D01*
X107947023Y-41352380D02*
X107375595Y-41352380D01*
X107661309Y-41352380D02*
X107661309Y-40352380D01*
X107566071Y-40495238D01*
X107470833Y-40590476D01*
X107375595Y-40638095D01*
X108804166Y-40685714D02*
X108804166Y-41352380D01*
X108566071Y-40304761D02*
X108327976Y-41019047D01*
X108947023Y-41019047D01*
G04 #@! TO.C,R15*
X106994642Y-46252380D02*
X106661309Y-45776190D01*
X106423214Y-46252380D02*
X106423214Y-45252380D01*
X106804166Y-45252380D01*
X106899404Y-45300000D01*
X106947023Y-45347619D01*
X106994642Y-45442857D01*
X106994642Y-45585714D01*
X106947023Y-45680952D01*
X106899404Y-45728571D01*
X106804166Y-45776190D01*
X106423214Y-45776190D01*
X107947023Y-46252380D02*
X107375595Y-46252380D01*
X107661309Y-46252380D02*
X107661309Y-45252380D01*
X107566071Y-45395238D01*
X107470833Y-45490476D01*
X107375595Y-45538095D01*
X108851785Y-45252380D02*
X108375595Y-45252380D01*
X108327976Y-45728571D01*
X108375595Y-45680952D01*
X108470833Y-45633333D01*
X108708928Y-45633333D01*
X108804166Y-45680952D01*
X108851785Y-45728571D01*
X108899404Y-45823809D01*
X108899404Y-46061904D01*
X108851785Y-46157142D01*
X108804166Y-46204761D01*
X108708928Y-46252380D01*
X108470833Y-46252380D01*
X108375595Y-46204761D01*
X108327976Y-46157142D01*
G04 #@! TO.C,R16*
X106994642Y-51052380D02*
X106661309Y-50576190D01*
X106423214Y-51052380D02*
X106423214Y-50052380D01*
X106804166Y-50052380D01*
X106899404Y-50100000D01*
X106947023Y-50147619D01*
X106994642Y-50242857D01*
X106994642Y-50385714D01*
X106947023Y-50480952D01*
X106899404Y-50528571D01*
X106804166Y-50576190D01*
X106423214Y-50576190D01*
X107947023Y-51052380D02*
X107375595Y-51052380D01*
X107661309Y-51052380D02*
X107661309Y-50052380D01*
X107566071Y-50195238D01*
X107470833Y-50290476D01*
X107375595Y-50338095D01*
X108804166Y-50052380D02*
X108613690Y-50052380D01*
X108518452Y-50100000D01*
X108470833Y-50147619D01*
X108375595Y-50290476D01*
X108327976Y-50480952D01*
X108327976Y-50861904D01*
X108375595Y-50957142D01*
X108423214Y-51004761D01*
X108518452Y-51052380D01*
X108708928Y-51052380D01*
X108804166Y-51004761D01*
X108851785Y-50957142D01*
X108899404Y-50861904D01*
X108899404Y-50623809D01*
X108851785Y-50528571D01*
X108804166Y-50480952D01*
X108708928Y-50433333D01*
X108518452Y-50433333D01*
X108423214Y-50480952D01*
X108375595Y-50528571D01*
X108327976Y-50623809D01*
G04 #@! TO.C,R17*
X103890842Y-39631880D02*
X103557509Y-39155690D01*
X103319414Y-39631880D02*
X103319414Y-38631880D01*
X103700366Y-38631880D01*
X103795604Y-38679500D01*
X103843223Y-38727119D01*
X103890842Y-38822357D01*
X103890842Y-38965214D01*
X103843223Y-39060452D01*
X103795604Y-39108071D01*
X103700366Y-39155690D01*
X103319414Y-39155690D01*
X104843223Y-39631880D02*
X104271795Y-39631880D01*
X104557509Y-39631880D02*
X104557509Y-38631880D01*
X104462271Y-38774738D01*
X104367033Y-38869976D01*
X104271795Y-38917595D01*
X105176557Y-38631880D02*
X105843223Y-38631880D01*
X105414652Y-39631880D01*
G04 #@! TO.C,R18*
X103852742Y-37663380D02*
X103519409Y-37187190D01*
X103281314Y-37663380D02*
X103281314Y-36663380D01*
X103662266Y-36663380D01*
X103757504Y-36711000D01*
X103805123Y-36758619D01*
X103852742Y-36853857D01*
X103852742Y-36996714D01*
X103805123Y-37091952D01*
X103757504Y-37139571D01*
X103662266Y-37187190D01*
X103281314Y-37187190D01*
X104805123Y-37663380D02*
X104233695Y-37663380D01*
X104519409Y-37663380D02*
X104519409Y-36663380D01*
X104424171Y-36806238D01*
X104328933Y-36901476D01*
X104233695Y-36949095D01*
X105376552Y-37091952D02*
X105281314Y-37044333D01*
X105233695Y-36996714D01*
X105186076Y-36901476D01*
X105186076Y-36853857D01*
X105233695Y-36758619D01*
X105281314Y-36711000D01*
X105376552Y-36663380D01*
X105567028Y-36663380D01*
X105662266Y-36711000D01*
X105709885Y-36758619D01*
X105757504Y-36853857D01*
X105757504Y-36901476D01*
X105709885Y-36996714D01*
X105662266Y-37044333D01*
X105567028Y-37091952D01*
X105376552Y-37091952D01*
X105281314Y-37139571D01*
X105233695Y-37187190D01*
X105186076Y-37282428D01*
X105186076Y-37472904D01*
X105233695Y-37568142D01*
X105281314Y-37615761D01*
X105376552Y-37663380D01*
X105567028Y-37663380D01*
X105662266Y-37615761D01*
X105709885Y-37568142D01*
X105757504Y-37472904D01*
X105757504Y-37282428D01*
X105709885Y-37187190D01*
X105662266Y-37139571D01*
X105567028Y-37091952D01*
G04 #@! TO.C,R19*
X103827342Y-35631380D02*
X103494009Y-35155190D01*
X103255914Y-35631380D02*
X103255914Y-34631380D01*
X103636866Y-34631380D01*
X103732104Y-34679000D01*
X103779723Y-34726619D01*
X103827342Y-34821857D01*
X103827342Y-34964714D01*
X103779723Y-35059952D01*
X103732104Y-35107571D01*
X103636866Y-35155190D01*
X103255914Y-35155190D01*
X104779723Y-35631380D02*
X104208295Y-35631380D01*
X104494009Y-35631380D02*
X104494009Y-34631380D01*
X104398771Y-34774238D01*
X104303533Y-34869476D01*
X104208295Y-34917095D01*
X105255914Y-35631380D02*
X105446390Y-35631380D01*
X105541628Y-35583761D01*
X105589247Y-35536142D01*
X105684485Y-35393285D01*
X105732104Y-35202809D01*
X105732104Y-34821857D01*
X105684485Y-34726619D01*
X105636866Y-34679000D01*
X105541628Y-34631380D01*
X105351152Y-34631380D01*
X105255914Y-34679000D01*
X105208295Y-34726619D01*
X105160676Y-34821857D01*
X105160676Y-35059952D01*
X105208295Y-35155190D01*
X105255914Y-35202809D01*
X105351152Y-35250428D01*
X105541628Y-35250428D01*
X105636866Y-35202809D01*
X105684485Y-35155190D01*
X105732104Y-35059952D01*
G04 #@! TO.C,R20*
X58492380Y-57617357D02*
X58016190Y-57950690D01*
X58492380Y-58188785D02*
X57492380Y-58188785D01*
X57492380Y-57807833D01*
X57540000Y-57712595D01*
X57587619Y-57664976D01*
X57682857Y-57617357D01*
X57825714Y-57617357D01*
X57920952Y-57664976D01*
X57968571Y-57712595D01*
X58016190Y-57807833D01*
X58016190Y-58188785D01*
X57587619Y-57236404D02*
X57540000Y-57188785D01*
X57492380Y-57093547D01*
X57492380Y-56855452D01*
X57540000Y-56760214D01*
X57587619Y-56712595D01*
X57682857Y-56664976D01*
X57778095Y-56664976D01*
X57920952Y-56712595D01*
X58492380Y-57284023D01*
X58492380Y-56664976D01*
X57492380Y-56045928D02*
X57492380Y-55950690D01*
X57540000Y-55855452D01*
X57587619Y-55807833D01*
X57682857Y-55760214D01*
X57873333Y-55712595D01*
X58111428Y-55712595D01*
X58301904Y-55760214D01*
X58397142Y-55807833D01*
X58444761Y-55855452D01*
X58492380Y-55950690D01*
X58492380Y-56045928D01*
X58444761Y-56141166D01*
X58397142Y-56188785D01*
X58301904Y-56236404D01*
X58111428Y-56284023D01*
X57873333Y-56284023D01*
X57682857Y-56236404D01*
X57587619Y-56188785D01*
X57540000Y-56141166D01*
X57492380Y-56045928D01*
G04 #@! TO.C,R21*
X61757322Y-52724946D02*
X61281132Y-53058279D01*
X61757322Y-53296374D02*
X60757322Y-53296374D01*
X60757322Y-52915422D01*
X60804942Y-52820184D01*
X60852561Y-52772565D01*
X60947799Y-52724946D01*
X61090656Y-52724946D01*
X61185894Y-52772565D01*
X61233513Y-52820184D01*
X61281132Y-52915422D01*
X61281132Y-53296374D01*
X60852561Y-52343993D02*
X60804942Y-52296374D01*
X60757322Y-52201136D01*
X60757322Y-51963041D01*
X60804942Y-51867803D01*
X60852561Y-51820184D01*
X60947799Y-51772565D01*
X61043037Y-51772565D01*
X61185894Y-51820184D01*
X61757322Y-52391612D01*
X61757322Y-51772565D01*
X61757322Y-50820184D02*
X61757322Y-51391612D01*
X61757322Y-51105898D02*
X60757322Y-51105898D01*
X60900180Y-51201136D01*
X60995418Y-51296374D01*
X61043037Y-51391612D01*
G04 #@! TO.C,R22*
X83119642Y-52402380D02*
X82786309Y-51926190D01*
X82548214Y-52402380D02*
X82548214Y-51402380D01*
X82929166Y-51402380D01*
X83024404Y-51450000D01*
X83072023Y-51497619D01*
X83119642Y-51592857D01*
X83119642Y-51735714D01*
X83072023Y-51830952D01*
X83024404Y-51878571D01*
X82929166Y-51926190D01*
X82548214Y-51926190D01*
X83500595Y-51497619D02*
X83548214Y-51450000D01*
X83643452Y-51402380D01*
X83881547Y-51402380D01*
X83976785Y-51450000D01*
X84024404Y-51497619D01*
X84072023Y-51592857D01*
X84072023Y-51688095D01*
X84024404Y-51830952D01*
X83452976Y-52402380D01*
X84072023Y-52402380D01*
X84452976Y-51497619D02*
X84500595Y-51450000D01*
X84595833Y-51402380D01*
X84833928Y-51402380D01*
X84929166Y-51450000D01*
X84976785Y-51497619D01*
X85024404Y-51592857D01*
X85024404Y-51688095D01*
X84976785Y-51830952D01*
X84405357Y-52402380D01*
X85024404Y-52402380D01*
G04 #@! TO.C,R23*
X92473542Y-57551580D02*
X92140209Y-57075390D01*
X91902114Y-57551580D02*
X91902114Y-56551580D01*
X92283066Y-56551580D01*
X92378304Y-56599200D01*
X92425923Y-56646819D01*
X92473542Y-56742057D01*
X92473542Y-56884914D01*
X92425923Y-56980152D01*
X92378304Y-57027771D01*
X92283066Y-57075390D01*
X91902114Y-57075390D01*
X92854495Y-56646819D02*
X92902114Y-56599200D01*
X92997352Y-56551580D01*
X93235447Y-56551580D01*
X93330685Y-56599200D01*
X93378304Y-56646819D01*
X93425923Y-56742057D01*
X93425923Y-56837295D01*
X93378304Y-56980152D01*
X92806876Y-57551580D01*
X93425923Y-57551580D01*
X93759257Y-56551580D02*
X94378304Y-56551580D01*
X94044971Y-56932533D01*
X94187828Y-56932533D01*
X94283066Y-56980152D01*
X94330685Y-57027771D01*
X94378304Y-57123009D01*
X94378304Y-57361104D01*
X94330685Y-57456342D01*
X94283066Y-57503961D01*
X94187828Y-57551580D01*
X93902114Y-57551580D01*
X93806876Y-57503961D01*
X93759257Y-57456342D01*
G04 #@! TO.C,R24*
X89095342Y-59151780D02*
X88762009Y-58675590D01*
X88523914Y-59151780D02*
X88523914Y-58151780D01*
X88904866Y-58151780D01*
X89000104Y-58199400D01*
X89047723Y-58247019D01*
X89095342Y-58342257D01*
X89095342Y-58485114D01*
X89047723Y-58580352D01*
X89000104Y-58627971D01*
X88904866Y-58675590D01*
X88523914Y-58675590D01*
X89476295Y-58247019D02*
X89523914Y-58199400D01*
X89619152Y-58151780D01*
X89857247Y-58151780D01*
X89952485Y-58199400D01*
X90000104Y-58247019D01*
X90047723Y-58342257D01*
X90047723Y-58437495D01*
X90000104Y-58580352D01*
X89428676Y-59151780D01*
X90047723Y-59151780D01*
X90904866Y-58485114D02*
X90904866Y-59151780D01*
X90666771Y-58104161D02*
X90428676Y-58818447D01*
X91047723Y-58818447D01*
G04 #@! TO.C,R25*
X92524342Y-60650380D02*
X92191009Y-60174190D01*
X91952914Y-60650380D02*
X91952914Y-59650380D01*
X92333866Y-59650380D01*
X92429104Y-59698000D01*
X92476723Y-59745619D01*
X92524342Y-59840857D01*
X92524342Y-59983714D01*
X92476723Y-60078952D01*
X92429104Y-60126571D01*
X92333866Y-60174190D01*
X91952914Y-60174190D01*
X92905295Y-59745619D02*
X92952914Y-59698000D01*
X93048152Y-59650380D01*
X93286247Y-59650380D01*
X93381485Y-59698000D01*
X93429104Y-59745619D01*
X93476723Y-59840857D01*
X93476723Y-59936095D01*
X93429104Y-60078952D01*
X92857676Y-60650380D01*
X93476723Y-60650380D01*
X94381485Y-59650380D02*
X93905295Y-59650380D01*
X93857676Y-60126571D01*
X93905295Y-60078952D01*
X94000533Y-60031333D01*
X94238628Y-60031333D01*
X94333866Y-60078952D01*
X94381485Y-60126571D01*
X94429104Y-60221809D01*
X94429104Y-60459904D01*
X94381485Y-60555142D01*
X94333866Y-60602761D01*
X94238628Y-60650380D01*
X94000533Y-60650380D01*
X93905295Y-60602761D01*
X93857676Y-60555142D01*
G04 #@! TO.C,R26*
X89069942Y-62301380D02*
X88736609Y-61825190D01*
X88498514Y-62301380D02*
X88498514Y-61301380D01*
X88879466Y-61301380D01*
X88974704Y-61349000D01*
X89022323Y-61396619D01*
X89069942Y-61491857D01*
X89069942Y-61634714D01*
X89022323Y-61729952D01*
X88974704Y-61777571D01*
X88879466Y-61825190D01*
X88498514Y-61825190D01*
X89450895Y-61396619D02*
X89498514Y-61349000D01*
X89593752Y-61301380D01*
X89831847Y-61301380D01*
X89927085Y-61349000D01*
X89974704Y-61396619D01*
X90022323Y-61491857D01*
X90022323Y-61587095D01*
X89974704Y-61729952D01*
X89403276Y-62301380D01*
X90022323Y-62301380D01*
X90879466Y-61301380D02*
X90688990Y-61301380D01*
X90593752Y-61349000D01*
X90546133Y-61396619D01*
X90450895Y-61539476D01*
X90403276Y-61729952D01*
X90403276Y-62110904D01*
X90450895Y-62206142D01*
X90498514Y-62253761D01*
X90593752Y-62301380D01*
X90784228Y-62301380D01*
X90879466Y-62253761D01*
X90927085Y-62206142D01*
X90974704Y-62110904D01*
X90974704Y-61872809D01*
X90927085Y-61777571D01*
X90879466Y-61729952D01*
X90784228Y-61682333D01*
X90593752Y-61682333D01*
X90498514Y-61729952D01*
X90450895Y-61777571D01*
X90403276Y-61872809D01*
G04 #@! TO.C,R27*
X92524342Y-63774580D02*
X92191009Y-63298390D01*
X91952914Y-63774580D02*
X91952914Y-62774580D01*
X92333866Y-62774580D01*
X92429104Y-62822200D01*
X92476723Y-62869819D01*
X92524342Y-62965057D01*
X92524342Y-63107914D01*
X92476723Y-63203152D01*
X92429104Y-63250771D01*
X92333866Y-63298390D01*
X91952914Y-63298390D01*
X92905295Y-62869819D02*
X92952914Y-62822200D01*
X93048152Y-62774580D01*
X93286247Y-62774580D01*
X93381485Y-62822200D01*
X93429104Y-62869819D01*
X93476723Y-62965057D01*
X93476723Y-63060295D01*
X93429104Y-63203152D01*
X92857676Y-63774580D01*
X93476723Y-63774580D01*
X93810057Y-62774580D02*
X94476723Y-62774580D01*
X94048152Y-63774580D01*
G04 #@! TO.C,R28*
X89146142Y-65374780D02*
X88812809Y-64898590D01*
X88574714Y-65374780D02*
X88574714Y-64374780D01*
X88955666Y-64374780D01*
X89050904Y-64422400D01*
X89098523Y-64470019D01*
X89146142Y-64565257D01*
X89146142Y-64708114D01*
X89098523Y-64803352D01*
X89050904Y-64850971D01*
X88955666Y-64898590D01*
X88574714Y-64898590D01*
X89527095Y-64470019D02*
X89574714Y-64422400D01*
X89669952Y-64374780D01*
X89908047Y-64374780D01*
X90003285Y-64422400D01*
X90050904Y-64470019D01*
X90098523Y-64565257D01*
X90098523Y-64660495D01*
X90050904Y-64803352D01*
X89479476Y-65374780D01*
X90098523Y-65374780D01*
X90669952Y-64803352D02*
X90574714Y-64755733D01*
X90527095Y-64708114D01*
X90479476Y-64612876D01*
X90479476Y-64565257D01*
X90527095Y-64470019D01*
X90574714Y-64422400D01*
X90669952Y-64374780D01*
X90860428Y-64374780D01*
X90955666Y-64422400D01*
X91003285Y-64470019D01*
X91050904Y-64565257D01*
X91050904Y-64612876D01*
X91003285Y-64708114D01*
X90955666Y-64755733D01*
X90860428Y-64803352D01*
X90669952Y-64803352D01*
X90574714Y-64850971D01*
X90527095Y-64898590D01*
X90479476Y-64993828D01*
X90479476Y-65184304D01*
X90527095Y-65279542D01*
X90574714Y-65327161D01*
X90669952Y-65374780D01*
X90860428Y-65374780D01*
X90955666Y-65327161D01*
X91003285Y-65279542D01*
X91050904Y-65184304D01*
X91050904Y-64993828D01*
X91003285Y-64898590D01*
X90955666Y-64850971D01*
X90860428Y-64803352D01*
G04 #@! TO.C,R29*
X86657142Y-52552380D02*
X86323809Y-52076190D01*
X86085714Y-52552380D02*
X86085714Y-51552380D01*
X86466666Y-51552380D01*
X86561904Y-51600000D01*
X86609523Y-51647619D01*
X86657142Y-51742857D01*
X86657142Y-51885714D01*
X86609523Y-51980952D01*
X86561904Y-52028571D01*
X86466666Y-52076190D01*
X86085714Y-52076190D01*
X87038095Y-51647619D02*
X87085714Y-51600000D01*
X87180952Y-51552380D01*
X87419047Y-51552380D01*
X87514285Y-51600000D01*
X87561904Y-51647619D01*
X87609523Y-51742857D01*
X87609523Y-51838095D01*
X87561904Y-51980952D01*
X86990476Y-52552380D01*
X87609523Y-52552380D01*
X88085714Y-52552380D02*
X88276190Y-52552380D01*
X88371428Y-52504761D01*
X88419047Y-52457142D01*
X88514285Y-52314285D01*
X88561904Y-52123809D01*
X88561904Y-51742857D01*
X88514285Y-51647619D01*
X88466666Y-51600000D01*
X88371428Y-51552380D01*
X88180952Y-51552380D01*
X88085714Y-51600000D01*
X88038095Y-51647619D01*
X87990476Y-51742857D01*
X87990476Y-51980952D01*
X88038095Y-52076190D01*
X88085714Y-52123809D01*
X88180952Y-52171428D01*
X88371428Y-52171428D01*
X88466666Y-52123809D01*
X88514285Y-52076190D01*
X88561904Y-51980952D01*
G04 #@! TO.C,U1*
X75488895Y-46213780D02*
X75488895Y-47023304D01*
X75536514Y-47118542D01*
X75584133Y-47166161D01*
X75679371Y-47213780D01*
X75869847Y-47213780D01*
X75965085Y-47166161D01*
X76012704Y-47118542D01*
X76060323Y-47023304D01*
X76060323Y-46213780D01*
X77060323Y-47213780D02*
X76488895Y-47213780D01*
X76774609Y-47213780D02*
X76774609Y-46213780D01*
X76679371Y-46356638D01*
X76584133Y-46451876D01*
X76488895Y-46499495D01*
G04 #@! TO.C,U2*
X79870395Y-43407080D02*
X79870395Y-44216604D01*
X79918014Y-44311842D01*
X79965633Y-44359461D01*
X80060871Y-44407080D01*
X80251347Y-44407080D01*
X80346585Y-44359461D01*
X80394204Y-44311842D01*
X80441823Y-44216604D01*
X80441823Y-43407080D01*
X80870395Y-43502319D02*
X80918014Y-43454700D01*
X81013252Y-43407080D01*
X81251347Y-43407080D01*
X81346585Y-43454700D01*
X81394204Y-43502319D01*
X81441823Y-43597557D01*
X81441823Y-43692795D01*
X81394204Y-43835652D01*
X80822776Y-44407080D01*
X81441823Y-44407080D01*
G04 #@! TO.C,Y1*
X63989009Y-37034790D02*
X63989009Y-37510980D01*
X63655676Y-36510980D02*
X63989009Y-37034790D01*
X64322342Y-36510980D01*
X65179485Y-37510980D02*
X64608057Y-37510980D01*
X64893771Y-37510980D02*
X64893771Y-36510980D01*
X64798533Y-36653838D01*
X64703295Y-36749076D01*
X64608057Y-36796695D01*
G04 #@! TO.C,J4*
X127766666Y-54952380D02*
X127766666Y-55666666D01*
X127719047Y-55809523D01*
X127623809Y-55904761D01*
X127480952Y-55952380D01*
X127385714Y-55952380D01*
X128671428Y-55285714D02*
X128671428Y-55952380D01*
X128433333Y-54904761D02*
X128195238Y-55619047D01*
X128814285Y-55619047D01*
G04 #@! TO.C,M3*
X125690476Y-34352380D02*
X125690476Y-33352380D01*
X126023809Y-34066666D01*
X126357142Y-33352380D01*
X126357142Y-34352380D01*
X126738095Y-33352380D02*
X127357142Y-33352380D01*
X127023809Y-33733333D01*
X127166666Y-33733333D01*
X127261904Y-33780952D01*
X127309523Y-33828571D01*
X127357142Y-33923809D01*
X127357142Y-34161904D01*
X127309523Y-34257142D01*
X127261904Y-34304761D01*
X127166666Y-34352380D01*
X126880952Y-34352380D01*
X126785714Y-34304761D01*
X126738095Y-34257142D01*
G04 #@! TO.C,C19*
X61495942Y-54463157D02*
X61543561Y-54510776D01*
X61591180Y-54653633D01*
X61591180Y-54748871D01*
X61543561Y-54891728D01*
X61448323Y-54986966D01*
X61353085Y-55034585D01*
X61162609Y-55082204D01*
X61019752Y-55082204D01*
X60829276Y-55034585D01*
X60734038Y-54986966D01*
X60638800Y-54891728D01*
X60591180Y-54748871D01*
X60591180Y-54653633D01*
X60638800Y-54510776D01*
X60686419Y-54463157D01*
X61591180Y-53510776D02*
X61591180Y-54082204D01*
X61591180Y-53796490D02*
X60591180Y-53796490D01*
X60734038Y-53891728D01*
X60829276Y-53986966D01*
X60876895Y-54082204D01*
X61591180Y-53034585D02*
X61591180Y-52844109D01*
X61543561Y-52748871D01*
X61495942Y-52701252D01*
X61353085Y-52606014D01*
X61162609Y-52558395D01*
X60781657Y-52558395D01*
X60686419Y-52606014D01*
X60638800Y-52653633D01*
X60591180Y-52748871D01*
X60591180Y-52939347D01*
X60638800Y-53034585D01*
X60686419Y-53082204D01*
X60781657Y-53129823D01*
X61019752Y-53129823D01*
X61114990Y-53082204D01*
X61162609Y-53034585D01*
X61210228Y-52939347D01*
X61210228Y-52748871D01*
X61162609Y-52653633D01*
X61114990Y-52606014D01*
X61019752Y-52558395D01*
G04 #@! TO.C,C20*
X76291442Y-64008542D02*
X76243823Y-64056161D01*
X76100966Y-64103780D01*
X76005728Y-64103780D01*
X75862871Y-64056161D01*
X75767633Y-63960923D01*
X75720014Y-63865685D01*
X75672395Y-63675209D01*
X75672395Y-63532352D01*
X75720014Y-63341876D01*
X75767633Y-63246638D01*
X75862871Y-63151400D01*
X76005728Y-63103780D01*
X76100966Y-63103780D01*
X76243823Y-63151400D01*
X76291442Y-63199019D01*
X76672395Y-63199019D02*
X76720014Y-63151400D01*
X76815252Y-63103780D01*
X77053347Y-63103780D01*
X77148585Y-63151400D01*
X77196204Y-63199019D01*
X77243823Y-63294257D01*
X77243823Y-63389495D01*
X77196204Y-63532352D01*
X76624776Y-64103780D01*
X77243823Y-64103780D01*
X77862871Y-63103780D02*
X77958109Y-63103780D01*
X78053347Y-63151400D01*
X78100966Y-63199019D01*
X78148585Y-63294257D01*
X78196204Y-63484733D01*
X78196204Y-63722828D01*
X78148585Y-63913304D01*
X78100966Y-64008542D01*
X78053347Y-64056161D01*
X77958109Y-64103780D01*
X77862871Y-64103780D01*
X77767633Y-64056161D01*
X77720014Y-64008542D01*
X77672395Y-63913304D01*
X77624776Y-63722828D01*
X77624776Y-63484733D01*
X77672395Y-63294257D01*
X77720014Y-63199019D01*
X77767633Y-63151400D01*
X77862871Y-63103780D01*
G04 #@! TO.C,C21*
X81686942Y-53477157D02*
X81734561Y-53524776D01*
X81782180Y-53667633D01*
X81782180Y-53762871D01*
X81734561Y-53905728D01*
X81639323Y-54000966D01*
X81544085Y-54048585D01*
X81353609Y-54096204D01*
X81210752Y-54096204D01*
X81020276Y-54048585D01*
X80925038Y-54000966D01*
X80829800Y-53905728D01*
X80782180Y-53762871D01*
X80782180Y-53667633D01*
X80829800Y-53524776D01*
X80877419Y-53477157D01*
X80877419Y-53096204D02*
X80829800Y-53048585D01*
X80782180Y-52953347D01*
X80782180Y-52715252D01*
X80829800Y-52620014D01*
X80877419Y-52572395D01*
X80972657Y-52524776D01*
X81067895Y-52524776D01*
X81210752Y-52572395D01*
X81782180Y-53143823D01*
X81782180Y-52524776D01*
X81782180Y-51572395D02*
X81782180Y-52143823D01*
X81782180Y-51858109D02*
X80782180Y-51858109D01*
X80925038Y-51953347D01*
X81020276Y-52048585D01*
X81067895Y-52143823D01*
G04 #@! TO.C,C22*
X69128642Y-45593542D02*
X69081023Y-45641161D01*
X68938166Y-45688780D01*
X68842928Y-45688780D01*
X68700071Y-45641161D01*
X68604833Y-45545923D01*
X68557214Y-45450685D01*
X68509595Y-45260209D01*
X68509595Y-45117352D01*
X68557214Y-44926876D01*
X68604833Y-44831638D01*
X68700071Y-44736400D01*
X68842928Y-44688780D01*
X68938166Y-44688780D01*
X69081023Y-44736400D01*
X69128642Y-44784019D01*
X69509595Y-44784019D02*
X69557214Y-44736400D01*
X69652452Y-44688780D01*
X69890547Y-44688780D01*
X69985785Y-44736400D01*
X70033404Y-44784019D01*
X70081023Y-44879257D01*
X70081023Y-44974495D01*
X70033404Y-45117352D01*
X69461976Y-45688780D01*
X70081023Y-45688780D01*
X70461976Y-44784019D02*
X70509595Y-44736400D01*
X70604833Y-44688780D01*
X70842928Y-44688780D01*
X70938166Y-44736400D01*
X70985785Y-44784019D01*
X71033404Y-44879257D01*
X71033404Y-44974495D01*
X70985785Y-45117352D01*
X70414357Y-45688780D01*
X71033404Y-45688780D01*
G04 #@! TD*
M02*
